<?xml version="1.0" standalone="no"?>
<!DOCTYPE svg PUBLIC "-//W3C//DTD SVG 1.1//EN" "http://www.w3.org/Graphics/SVG/1.1/DTD/svg11.dtd" >
<svg xmlns="http://www.w3.org/2000/svg">
<metadata></metadata>
<defs>
<font id="bhartiya_hindi_051normal" horiz-adv-x="2101" >
<font-face units-per-em="2048" ascent="1638" descent="-410" />
<missing-glyph horiz-adv-x="1012" />
<glyph horiz-adv-x="0" />
<glyph unicode="&#xd;" horiz-adv-x="1012" />
<glyph unicode=" "  horiz-adv-x="1012" />
<glyph unicode="&#x09;" horiz-adv-x="1012" />
<glyph unicode="&#xa0;" horiz-adv-x="1012" />
<glyph unicode="!" horiz-adv-x="555" d="M230 107l153 151l148 -151l-148 -150zM256 1217q0 45 39.5 78.5t91.5 33.5q48 0 86.5 -33.5t38.5 -78.5l-88 -875h-84z" />
<glyph unicode="&#x22;" horiz-adv-x="580" d="M0 860v170h613v-170h-201l264 -374l59 41v-236q-40 -28 -106.5 -60t-151.5 -32q-86 0 -174 61.5t-147 141t-59 123.5v335h-97zM312 422q0 -69 65 -69t132.5 28.5t88.5 46.5l-87 125l-112 158l-87 125v-414z" />
<glyph unicode="#" horiz-adv-x="1151" d="M0 858v172h1184v-172h-641l27 -90l12 -88q21 4 54 6t89 2q58 0 138 -47t137 -122t57 -154q0 -127 -48 -235.5t-81 -146.5l-227 144q22 0 68.5 50.5t82 134t35.5 174.5q0 28 -25 42.5t-55 14.5q-78 0 -169 -44q-83 -39 -122 -69q-16 -21 -35.5 -38t-44.5 -30 q-41 -22 -87 -35l-42 -9l150 -172q117 -129 219 -204l-90 -57q-13 11 -22 19q-15 13 -63 59q-37 35 -84.5 83.5t-92.5 98.5t-86 102t-76 105q-70 107 -70 177q0 34 23.5 54.5t62.5 20.5h166v254h-344z" />
<glyph unicode="$" horiz-adv-x="1077" d="M105 445v139h858v-139h-858zM477 123v778h154v-778h-154z" />
<glyph unicode="%" horiz-adv-x="555" d="M150 738l151 151l150 -151l-152 -146zM152 176l149 148l150 -148l-152 -141z" />
<glyph unicode="&#x26;" horiz-adv-x="760" d="M80 453v123h602v-123h-602z" />
<glyph unicode="'" horiz-adv-x="830" d="M70 262q0 74 36 116t103 42q59 0 91.5 -26t41.5 -58q68 33 105 82q43 53 65 109q-63 0 -140 22q-63 18 -149 56q-153 69 -153 235q0 61 32 107t85.5 71t107.5 25q100 0 198.5 -68.5t161 -177.5t62.5 -223q0 -126 -45.5 -213.5t-102 -133t-102.5 -63.5l29 -29l41 -38 q28 -24 46 -39q35 -29 52 -42q28 -20 53 -20l-149 -97q-18 30 -98 132q-43 59 -66 102q-59 -14 -109 -14q-80 0 -138 44t-58 99zM246 746q11 -104 281 -137l-2 45q0 101 -25 182.5t-94 81.5q-63 0 -111.5 -51.5t-48.5 -120.5zM635 1030h225v-170h-137z" />
<glyph unicode="(" horiz-adv-x="711" d="M117 514q0 99 14.5 192t42.5 177.5t58 151.5t69 127q72 114 141 183l74 75l52 -21q-63 -84 -155.5 -309.5t-92.5 -575.5q0 -354 96 -566t160 -280l-60 -33l-73 68q-34 32 -70.5 76t-72.5 97q-74 108 -128.5 271.5t-54.5 366.5z" />
<glyph unicode=")" horiz-adv-x="711" d="M125 -334q64 71 158 280.5t94 567.5q0 351 -91.5 577t-154.5 308l49 21q30 -27 48 -45q12 -12 49 -50q48 -49 120 -159t128 -281q28 -85 42.5 -177t14.5 -194q0 -204 -56 -369t-131 -275q-36 -53 -72.5 -96.5t-67.5 -72.5q-64 -61 -77 -66z" />
<glyph unicode="*" horiz-adv-x="555" d="M217 824q45 44 66.5 76t40.5 87l13 26l17 35l7 29l-121 117l143 139l144 -139q-15 -36 -40.5 -87t-60.5 -113q-31 -55 -139 -218z" />
<glyph unicode="+" horiz-adv-x="25" d="M-447 -183l127 121l133 -121l-133 -114z" />
<glyph unicode="," horiz-adv-x="1034" d="M0 858v172h1061v-172h-141v-376q0 -53 -5 -80q-3 -25 -24 -55.5t-76.5 -49t-72.5 -18.5l-201 129q84 0 113 26q34 19 34 58v366h-329v-532l544 -316q88 -64 88 -168q0 -63 -50.5 -124t-86.5 -91l-202 195q25 0 63 7t59 11q74 15 78 49q0 21 -13 40t-28 30l-690 373v526 h-121z" />
<glyph unicode="-" horiz-adv-x="555" d="M230 92l153 138l148 -138l-148 -135z" />
<glyph unicode="." horiz-adv-x="797" d="M0 860v170h828v-170h-125v-444q0 -76 -71 -120t-163 -44q-61 0 -144 54q-37 24 -75.5 55t-73.5 64q-67 66 -67 77v358h-109zM322 473q0 -82 61 -82q45 0 79 25.5t34 69.5v374h-174v-387z" />
<glyph unicode="/" horiz-adv-x="725" d="M82 875q0 85 66.5 136.5t187.5 51.5q101 0 172.5 -49.5t71.5 -142.5q0 -41 -28.5 -69t-61.5 -42t-45 -14l-66 86q25 0 51.5 13.5t26.5 37.5q0 45 -68 45q-63 0 -101 -30.5t-38 -94.5q0 -60 49 -104.5t78 -53.5q18 6 66 15q20 4 50 7t62 3l133 -145l-16 -11 q-108 0 -231 -43.5t-123 -138.5q0 -46 32.5 -65t73.5 -19q92 0 188 51q50 27 89.5 53t78.5 59q72 62 72 68h23v-237q-50 -39 -145.5 -86t-202.5 -47q-76 0 -167.5 45t-153.5 120.5t-62 161.5q0 105 133 168q-67 34 -131 104.5t-64 166.5zM602 1030h158v-170h-84z" />
<glyph unicode="0" horiz-adv-x="1080" d="M207 500q0 220 129 387.5t281 167.5q145 0 258 -141q57 -73 86.5 -163.5t29.5 -197.5q0 -181 -110 -350q-129 -209 -291 -209q-161 0 -272 146q-54 68 -82.5 159.5t-28.5 200.5zM402 582q0 -174 84 -270q79 -99 192 -99q40 0 78 60q39 74 39 198q0 147 -76 260 q-71 107 -158 107q-72 0 -118 -55q-41 -68 -41 -201z" />
<glyph unicode="1" horiz-adv-x="887" d="M117 850l432 213l123 -88v-973l-215 -45l2 654v145v22v72v-8l-272 -127z" />
<glyph unicode="2" horiz-adv-x="924" d="M35 -19l29 136q47 41 93 82t89 81q91 84 143 138q61 62 90 98q41 55 62.5 104.5t21.5 92.5q0 75 -61 106q-53 43 -129 43q-52 0 -96 -22q-44 -15 -123 -94l-94 53l75 168q49 40 117 59q96 27 191 27q114 0 227 -80q119 -93 119 -221q0 -130 -117 -285 q-43 -55 -116.5 -127.5t-176.5 -163.5l459 9l-49 -189z" />
<glyph unicode="3" horiz-adv-x="963" d="M27 80l100 207q91 -71 180 -104q81 -27 138 -27q71 0 143 51q68 54 68 98q0 48 -55.5 94t-141.5 58l-22 -6l-41 -10q-26 -7 -82 -13q-34 0 -60 19q-16 20 -22 45q0 38 65 143q36 0 92 6q46 0 58 4l28 -4q36 33 56 68q28 35 28 47q0 42 -47 74q-24 16 -55 25.5t-66 9.5 q-59 0 -108 -23q-56 -11 -111 -53l-92 28l80 177q64 25 137 43q34 8 62 12t59 4q142 0 242 -62q87 -67 98 -190q0 -57 -41 -123q-22 -36 -55 -74q72 -30 123 -84q34 -37 51.5 -77t17.5 -86q0 -146 -157 -266t-347 -120q-74 0 -161 21q-92 24 -162 88z" />
<glyph unicode="4" horiz-adv-x="951" d="M-8 230l43 204l465 545l235 78l-12 -649h164l-49 -176h-115l4 -232l-209 -66l-4 298zM215 408h293l6 344z" />
<glyph unicode="5" horiz-adv-x="951" d="M45 101l80 182q123 -61 172 -76q76 -22 123 -22q85 0 158 49q65 41 65 96q0 61 -94 121q-65 31 -176 50t-252 19l88 533h598l-59 -191h-398l-26 -167q137 -14 234 -40t157 -65q127 -71 127 -201q0 -142 -155 -267.5t-322 -125.5q-70 0 -160 25q-100 21 -160 80z" />
<glyph unicode="6" horiz-adv-x="987" d="M31 348q0 164 127 367q52 76 114.5 147.5t139.5 141.5l276 59l25 -104q-187 -95 -302.5 -218t-148.5 -251l-47 55l51 31l56 35q48 24 96 37.5t96 13.5q132 0 238 -92q51 -44 78.5 -99.5t27.5 -122.5q0 -142 -129.5 -265.5t-304.5 -123.5q-149 0 -271 113t-122 276z M246 389q0 -54 18 -99.5t50 -78.5q35 -30 82 -47.5t106 -17.5q66 0 115 34q18 19 28.5 45.5t10.5 59.5q0 77 -68 133q-30 26 -70.5 41.5t-89.5 15.5q-42 0 -96 -24q-43 -19 -86 -62z" />
<glyph unicode="7" horiz-adv-x="987" d="M15 862l67 191h795l-39 -111l-451 -905l-182 -58l-94 44q120 177 289 471q104 178 206 368h-591z" />
<glyph unicode="8" horiz-adv-x="1000" d="M45 275q0 80 66 166q58 56 115 88q-48 24 -97 65q-69 66 -69 162q0 107 114 205q56 45 120.5 69.5t133.5 24.5q158 0 267.5 -74.5t109.5 -212.5q0 -81 -47 -149q-39 -50 -86 -74q67 -37 113 -90q57 -71 57 -168q0 -118 -117 -213q-59 -49 -133 -76t-158 -27 q-157 0 -272 82q-117 92 -117 222zM260 307q0 -48 69.5 -113t135.5 -65q90 0 125 31q18 14 28.5 37t10.5 57q0 38 -53 88q-69 64 -203 109q-113 -34 -113 -144zM262 789q0 -36 84 -97q54 -35 176 -88q36 33 54 62q26 31 26 65q0 66 -69 111q-34 27 -69 41t-75 14 q-53 0 -94 -24q-27 -30 -33 -84z" />
<glyph unicode="9" horiz-adv-x="975" d="M31 658q0 147 127 268q65 62 141 93.5t166 31.5q158 0 273 -115q58 -53 89 -123t31 -155q0 -159 -131 -363q-87 -130 -252 -285l-270 -61l-27 102q184 91 304 218q74 86 98 137l-17 -10q-107 -52 -190 -52q-133 0 -242 97q-100 97 -100 217zM234 723q0 -76 65 -131 q31 -28 70 -42.5t90 -14.5q37 0 96 26q51 22 88 62q0 107 -75 172q-70 67 -183 67q-73 0 -116 -34q-27 -29 -35 -105z" />
<glyph unicode=":" horiz-adv-x="1278" d="M0 858v172h1309v-172h-842q33 -92 33 -194l-2 -60q37 0 59.5 5.5t57.5 28t39 28.5l26 26q16 16 52 31t92 15q111 0 185 -67t112.5 -169t53.5 -212t15 -210q0 -125 -10 -131l-53 -2l-4 18q0 36 -15 129q-8 47 -19.5 96t-28.5 99q-33 104 -90.5 178t-139.5 74 q-115 0 -115 -94q0 -25 25.5 -41.5t54.5 -16.5q49 0 84 22t51 38l53 -205l-48 -12q-47 -11 -95 -11q-128 0 -178 101q-24 49 -37.5 100t-13.5 96l-54 -4q-21 0 -67 11q-27 -68 -47 -95q-40 -48 -99 -81q-31 -18 -44 -24q-6 -3 -15 -7l68 -80l81 -92q66 -74 137 -138 q77 -69 78 -74l-79 -49q-13 11 -22 19q-22 19 -64 60q-86 81 -177 180t-164 208q-36 53 -54.5 97t-18.5 80q0 33 24.5 54t63.5 21h113v254h-271z" />
<glyph unicode=";" horiz-adv-x="1084" d="M0 860v170h1096v-170h-131v-971l-232 138v207q-130 -68 -247 -68q-112 0 -194 60t-129 139t-72 155q-11 35 -17 58t-6 33q15 -5 43 -5q77 0 148 26t71 87q0 44 -15 76q-5 11 -11 21q-9 16 -21 27q-7 7 -15 13q-2 2 -6 4h-262zM246 432q11 -36 43 -71t88 -35 q155 0 356 153v381h-350q50 -56 76.5 -110t26.5 -103q0 -124 -80 -169q-40 -22 -80.5 -34t-79.5 -12z" />
<glyph unicode="&#x3c;" horiz-adv-x="975" d="M0 860v170h1016v-170h-219v-280h-377q-201 0 -201 -174q0 -18 1 -28t6 -30q20 -125 119 -164.5t204 -39.5q-125 90 -125 192q0 168 230 168q65 0 128 -47q33 -24 58.5 -52.5t46.5 -63.5q43 -69 43 -124q0 -68 -42.5 -123t-116.5 -84t-167 -29q-64 0 -127.5 19t-127.5 57 q-123 74 -202 190t-79 226q0 106 52.5 167.5t119 85.5t113.5 24h235v110h-588zM572 256q0 -40 33 -67t47 -27q6 0 43 18.5t67.5 51t30.5 73.5q0 62 -64 62q-65 0 -111 -28t-46 -83z" />
<glyph unicode="=" horiz-adv-x="1077" d="M0 860v170h1096v-170h-131v-971l-232 138v229l-434 -233l-121 203l506 180l-121 94q-65 43 -131 43q-47 -10 -139 -41l-141 -47l-107 219l165 20q115 13 179 13q79 0 138 -51q80 -66 128 -103q55 -43 78 -59v366h-733z" />
<glyph unicode="&#x3e;" horiz-adv-x="1288" d="M0 860v170h1299v-170h-133v-975l-230 138v311q-23 -9 -47.5 -14.5t-42.5 -5.5q-98 0 -156 34q17 -48 17 -92q0 -87 -65 -132t-142 -60l158 -113l-99 -74l-163 156q-20 -4 -82 -4q-82 0 -149.5 28t-67.5 105q0 50 36 83q38 32 90 32q90 0 127 -76q29 0 90 16.5t110.5 45 t49.5 61.5q0 28 -17 37q-17 12 -52 12q-73 0 -154.5 -16t-87.5 -29q-15 0 -69.5 52t-99 117t-50.5 124q0 57 39.5 101t99.5 44h256v94h-465zM195 563q0 -29 16.5 -49t26.5 -20l61 15q69 16 109 16q30 0 58.5 -5t50.5 -13q44 -15 73 -37l35 -21q41 -13 72 -13q99 0 239 99 v325h-274v-251h-418q-18 0 -33.5 -13t-15.5 -33z" />
<glyph unicode="?" horiz-adv-x="606" d="M0 860v170h635v-170h-313v-190l31 -27l49 11h96l90 -121q0 -8 -66.5 -25.5t-117.5 -34t-97.5 -51t-46.5 -84.5q0 -37 29.5 -55.5t65.5 -18.5q74 0 156.5 39.5t146 86t63.5 53.5h23v-220l-26 -18q-22 -16 -56 -32t-84 -30q-24 -6 -52.5 -11t-56.5 -5q-53 0 -145 41.5 t-159.5 111.5t-67.5 154q0 115 159 181l-151 96v149h-105z" />
<glyph unicode="@" horiz-adv-x="697" d="M137 -13l377 1064l146 -17l-375 -1063z" />
<glyph unicode="A" horiz-adv-x="758" d="M404 -19v1051l198 -145v-1065z" />
<glyph unicode="B" horiz-adv-x="1102" d="M0 860v170h1096v-170h-369v-247q0 -28 -75 -58l-170 -66q-94 -36 -158 -91t-64 -136q0 -62 55 -97.5t105 -35.5q86 0 175.5 30.5t148.5 89.5t59 138t-141 142l76 57q23 -4 78 -42q54 -34 103.5 -104t49.5 -163q0 -75 -50 -139t-147 -101t-225 -37q-101 0 -205.5 43 t-176 135t-71.5 230q0 68 58 115t143 83l155 63q70 28 70 54v137h-520z" />
<glyph unicode="C" horiz-adv-x="584" d="M0 860v170h617v-170h-617zM74 463q0 126 103 201.5t270 75.5q50 0 85 -7l56 -10l100 -188l-92 24q-62 15 -119 15q-52 0 -92 -13t-57 -28l399 -142l-2 -182q-5 -12 -76.5 -46t-160.5 -34q-88 0 -186 45t-163 122t-65 167zM226 383q0 -47 40.5 -79.5t90.5 -32.5 q89 0 165 25t107 48l-360 123q-43 -19 -43 -84z" />
<glyph unicode="D" horiz-adv-x="920" d="M0 860v170h953v-170h-187v-227q47 31 96 35q110 0 148 -12v-177q-66 15 -86 15q-28 0 -66 -6q-68 -16 -92 -76v-523l-225 138v192q-82 -59 -174 -59q-36 0 -70 11.5t-70 35.5q-70 47 -116.5 120.5t-46.5 137.5q0 107 80 168.5t172 85.5q43 11 75.5 17t51.5 6l92 -174 l-19 -11q-49 0 -121.5 -20t-132 -60.5t-59.5 -97.5q0 -72 76 -72q43 0 101.5 34.5t110.5 78.5q20 17 43 40l7 7v393h-541z" />
<glyph unicode="E" horiz-adv-x="594" d="M0 860v170h627v-170h-213v-313h344v-172h-344v-115q0 -18 -21.5 -33.5t-46.5 -15.5q-49 0 -121.5 46.5t-128 112t-55.5 112.5q0 27 20 47q20 18 48 18h88v313h-197z" />
<glyph unicode="F" horiz-adv-x="680" d="M70 617q30 0 60 3t69 11l83 19l50 14q-29 7 -55 15.5t-57 22.5q-59 27 -104.5 73.5t-45.5 109.5q0 83 56.5 130.5t139.5 47.5q80 0 153.5 -47.5t120 -125t46.5 -152.5q0 -173 -114.5 -232t-225.5 -59q17 -34 62 -70.5t114 -36.5q89 0 172.5 32.5t141.5 73t59 48.5l22 -2 l-2 -228q-2 -5 -50 -29.5t-120 -45.5t-155 -21q-108 0 -187.5 60t-129.5 143t-76.5 157t-26.5 89zM250 838q0 -56 57.5 -83.5t98.5 -31.5l12 10q12 10 20.5 36t8.5 71q0 34 -27.5 65t-66.5 31q-103 0 -103 -98zM557 1030h156v-170h-86z" />
<glyph unicode="G" horiz-adv-x="541" d="M-373 543l104 48q99 43 186 74q44 15 81 24.5t60 9.5q64 0 136 -56t120 -148q23 -44 36 -91t13 -92q0 -66 -38.5 -142t-82 -131.5t-62.5 -69.5l-211 146q22 0 84 55t112 130.5t50 142.5q0 32 -21 58t-52 26q-45 0 -159 -42q-51 -19 -111 -44q-48 -20 -110 -48 q-108 -50 -108 -57zM-248 860v170h805v-170h-805z" />
<glyph unicode="H" horiz-adv-x="762" d="M49 918q0 56 50 105.5t135 49.5q93 0 171.5 -40.5t126.5 -95.5t48 -87v-291h336v-180h-336v-135q0 -17 -26.5 -29t-49.5 -12q-38 0 -120 54t-147 126t-65 119q0 23 16 42t44 19h131v107q-55 0 -124.5 16.5t-129.5 71.5t-60 160zM226 858q0 -51 35 -80.5t102 -29.5v168 q0 23 -15 40t-36 17q-35 0 -60.5 -29.5t-25.5 -85.5zM613 1030h182v-170h-96z" />
<glyph unicode="I" horiz-adv-x="508" d="M0 860v170h563v-170h-243v-393q0 -16 13 -38.5t46 -22.5q72 0 135.5 33t105 72.5t42.5 45.5h22v-229q-21 -18 -82 -42t-157 -24q-62 0 -141.5 63.5t-140 143.5t-60.5 109v282h-103z" />
<glyph unicode="J" horiz-adv-x="1342" d="M-15 543q62 9 232 57q59 15 127 45q-73 30 -142 88.5t-69 131.5q0 198 289 198q71 0 146.5 -40t124.5 -109t49 -146q0 -27 -8.5 -51t-26.5 -49q-33 -45 -70 -70l311 -135v397h-176l-51 170h590v-170h-133v-971l-230 138v221l-493 -225l-150 174l570 199l-330 139 q-32 -16 -85 -41q-47 -22 -126 -58q-175 -64 -201 -67zM320 791q0 -29 52 -65t60 -36q9 0 46 25t68.5 65t31.5 85q0 75 -45 75q-82 0 -147.5 -41t-65.5 -108z" />
<glyph unicode="K" horiz-adv-x="1268" d="M0 860v170h1274v-170h-133v-977l-233 140v542h-578q-100 0 -100 -71q0 -28 16 -49q37 18 78.5 27.5t93.5 9.5q65 0 131 -40.5t109 -102.5t43 -120q0 -92 -49.5 -144.5t-108.5 -78.5l178 -107l-108 -76l-160 150l-51 -2q-96 0 -175 27t-79 96q0 125 127 125 q73 0 100.5 -19.5t30.5 -39.5q22 0 68 18.5t81 47.5t35 61q0 40 -18 49q-16 10 -54 10q-49 0 -99 -12t-82 -31q-30 -16 -32 -31q-54 48 -138.5 149.5t-84.5 184.5q0 68 54 103.5t126 35.5h646v125h-908z" />
<glyph unicode="L" horiz-adv-x="723" d="M0 858v172h758v-172h-283q17 -52 28 -112.5t11 -124.5q0 -59 -10 -92q60 -39 100 -39q67 0 125.5 22.5t97 50t38.5 33.5h22l-2 -213q-6 -8 -65 -27q-28 -9 -63 -14.5t-67 -5.5q-49 0 -111.5 36t-107.5 73q-36 -61 -59 -84q-23 -26 -81 -52l-56 -24l137 -148 q115 -118 199 -160l-84 -61q-6 0 -132 117t-230 248q-52 65 -79.5 121.5t-27.5 101.5q0 33 25 56.5t59 23.5h143v274h-285z" />
<glyph unicode="M" horiz-adv-x="1000" d="M0 860v170h1016v-170h-203v-276h-454q-47 0 -64.5 -15.5t-17.5 -66.5q0 -26 15 -39.5t24 -13.5l77 15l131 26q62 10 80 10q105 0 198 -66.5t93 -207.5q0 -106 -78 -180.5t-217 -74.5q-93 0 -193 48.5t-182.5 115t-138 128t-55.5 75.5l80 43q3 -18 59.5 -79.5 t151.5 -111.5t211 -50q58 0 119 22.5t100 57t39 69.5q0 22 -17 36.5t-45 14.5q-94 0 -198 -30.5t-154 -51.5q-9 0 -78 67t-127.5 149.5t-58.5 142.5q0 57 45 94t108 37h338v112h-604z" />
<glyph unicode="N" horiz-adv-x="1164" d="M0 860v170h1192v-170h-295v-108l39 -32q17 -14 41.5 -55t40.5 -104t16 -159q0 -211 -129 -319t-329 -108q-107 0 -219.5 56t-185 151.5t-72.5 202.5q0 65 53.5 113.5t109.5 75.5l-163 86v200h-99zM273 248q0 -63 48 -96t99 -33q106 0 195 23q41 11 77 24.5t62 28.5 q50 28 76 53q-90 37 -178.5 116t-88.5 210q0 53 18.5 90t42 56.5t47.5 29.5l32 12v98h-387v-213l10 -16l18 -25l103 29l96 -199q-28 0 -58.5 -4t-61.5 -13q-61 -18 -105.5 -60t-44.5 -111zM719 467q0 -55 52 -89q48 -31 106 -50q15 18 35 76q10 31 15 60t5 63q0 102 -76 102 q-50 0 -93.5 -40t-43.5 -122z" />
<glyph unicode="O" horiz-adv-x="580" d="M0 860v170h613v-170h-613zM82 486q0 245 373 245l61 -2l43 -2l97 -207q-56 25 -162 25q-55 0 -102.5 -13t-83.5 -36q-70 -45 -70 -125q0 -27 24 -51q12 -11 27 -17t35 -6q85 0 171 36q45 19 79.5 37t67.5 42q59 43 61 51h22v-227q-27 -24 -100.5 -63.5t-171.5 -39.5 q-95 0 -180 55t-138 139t-53 159z" />
<glyph unicode="P" horiz-adv-x="711" d="M0 860v170h742v-170h-742zM25 740h659l88 -166h-188q-11 0 -69 -43t-105 -100.5t-47 -116.5q0 -28 15.5 -36.5t49.5 -8.5q67 0 158.5 45.5t170.5 102t81 62.5h22v-223q-179 -119 -307 -119q-77 0 -166 36t-149 94.5t-60 125.5q0 106 101 181h-158z" />
<glyph unicode="Q" horiz-adv-x="1313" d="M0 860v170h1346v-170h-545v-235q73 49 170 49q88 0 149.5 -54t93 -140t31.5 -177q0 -165 -129 -348l-225 144q19 0 77.5 59t106.5 136t48 128q0 82 -80 82q-47 0 -101.5 -25t-97 -57t-43.5 -41v-492l-231 138v258q-60 -27 -121 -27q-66 0 -145.5 63.5t-134 140.5 t-54.5 114v284h-115zM332 441q0 -10 12 -24.5t41 -14.5t74 22.5t77 47t34 30.5v358h-238v-419z" />
<glyph unicode="R" horiz-adv-x="602" d="M0 860v170h637v-170h-637zM68 471q0 96 60 162t149 66h514v-185h-402q-66 0 -108.5 -40.5t-42.5 -118.5q0 -97 73.5 -175.5t122.5 -111.5l-81 -60q-14 10 -39 31q-30 25 -56 50q-62 57 -126 161.5t-64 220.5z" />
<glyph unicode="S" horiz-adv-x="25" d="M-725 1333l94 3l23 -2l21 -5l26 -6q44 -21 110 -124q62 -98 98 -167l-77 -4l-60 92q-37 56 -49 66q-7 4 -22 4q-12 0 -25.5 -1t-27.5 -4l-44 -7zM-713 1581l188 4q83 0 134 -69q51 -63 117 -227q33 -82 58 -147q22 -57 42 -114h-82q0 6 -150 336q-29 66 -102 66l-129 -21 z" />
<glyph unicode="T" horiz-adv-x="793" d="M0 860v170h832v-170h-832zM35 623l86 37q6 -41 32 -122.5t89.5 -160t169.5 -78.5q54 0 92.5 33.5t38.5 91.5q0 57 -32 116q-28 54 -64.5 94.5t-44.5 41.5l2 21h536v-170h-329q26 -35 53.5 -97.5t27.5 -117.5q0 -201 -217 -201q-96 0 -176.5 68.5t-138 163t-91.5 179.5 q-18 45 -25.5 68t-8.5 33z" />
<glyph unicode="U" horiz-adv-x="586" d="M0 860v170h623v-170h-623zM68 578q0 24 23 40.5t51 16.5h614v-182h-365v-164q0 -20 -17 -35.5t-38 -15.5q-53 0 -115.5 55.5t-107.5 136.5t-45 148z" />
<glyph unicode="V" horiz-adv-x="1000" d="M0 860v170h1026v-170h-221v-264q0 -34 -102 -67l-206 -66q-106 -32 -180.5 -79.5t-74.5 -121.5q0 -41 51.5 -80.5t89.5 -39.5q53 0 95.5 4.5t92.5 14.5q87 17 142 42t83 48t34 42l100 -201q-32 -26 -127 -63q-51 -20 -103 -31t-106 -11q-116 0 -232 48t-190.5 136 t-74.5 198q0 92 68 150.5t145.5 86.5t179.5 57t102 44v153h-592z" />
<glyph unicode="W" horiz-adv-x="2" d="M-742 1303l88 59q1 -15 26 -53t78.5 -71.5t131.5 -33.5q59 8 97.5 34.5t60.5 62.5t31 68l12 40l161 -96q-12 -34 -37 -76t-92.5 -90.5t-173.5 -60.5q-24 -4 -43 -4q-130 0 -218 83t-122 138z" />
<glyph unicode="X" horiz-adv-x="629" d="M0 860v170h658v-170h-205v-516q0 -31 -11 -47t-55 -22q-46 0 -116 46t-125.5 109.5t-55.5 106.5q0 59 58 59h86v264h-234z" />
<glyph unicode="Y" horiz-adv-x="789" d="M0 858v172h819v-172h-819zM53 496q0 102 65 166.5t198 64.5q106 0 206 -125q84 111 195 111q65 0 124 -49q32 -26 53 -45.5t34 -34.5l2 -84h-22q-6 5 -10 8q-17 13 -32 22q-40 25 -75 25q-48 0 -71 -38t-23 -68v-258l-203 90v203q0 16 -25.5 47.5t-77.5 31.5 q-48 0 -80.5 -26.5t-48.5 -65.5q-8 -20 -12 -38t-4 -40q0 -100 64.5 -186.5t146 -140t104.5 -53.5l-96 -75q-11 7 -19 12q-15 10 -51 37t-73 59t-75 70q-77 75 -135.5 176.5t-58.5 203.5z" />
<glyph unicode="Z" horiz-adv-x="25" d="M-344 1331q0 93 57.5 157.5t173.5 64.5q59 0 108.5 -19t80.5 -41q13 -9 25 -19q3 -3 8 -7l-29 -64q-5 3 -16 8t-22 9q-30 10 -67 10q-64 0 -113 -46t-49 -122q0 -52 19.5 -101t42.5 -80q12 -17 23 -28q2 -2 5 -4v-21h-86q-18 18 -45 51.5t-56 73.5q-60 87 -60 178z" />
<glyph unicode="[" horiz-adv-x="928" d="M0 860v170h965v-170h-559l11 -55l17 -96q3 -21 5 -39.5t2 -36.5q0 -227 -197 -287q28 -77 113 -152t280 -75q109 0 198 16.5t168 41.5l74 24v-66q-5 -4 -9 -7q-16 -13 -28 -21q-34 -23 -95.5 -54t-135.5 -52.5t-155 -21.5q-124 0 -232.5 58t-186 147t-122.5 188t-45 171 q0 20 13.5 35.5t35.5 15.5h100v266h-217zM518 522q0 106 83 170t194 64q73 0 141 -12l78 -185q-32 0 -74 3t-51 3h-41.5t-36.5 -2q-88 0 -134 -30.5t-46 -81.5q0 -66 127 -66q63 0 129.5 28t115.5 61q23 15 45 31q3 2 7 5h22v-201q-24 -18 -96 -46q-68 -25 -149 -25 q-80 0 -153 36t-117 102t-44 146z" />
<glyph unicode="\" horiz-adv-x="991" d="M314 1168l58 41q47 34 104 60t110 26q83 0 156.5 -47t116 -124.5t42.5 -162.5q0 -182 -110.5 -273.5t-208.5 -115.5v-265h-92v471q23 0 98 25.5t137 78t62 130.5q0 60 -18 92.5t-89 32.5q-53 0 -109 -30q-27 -14 -48 -30t-41 -38q-35 -40 -35 -62zM383 113l152 143 l157 -141l-157 -144z" />
<glyph unicode="]" horiz-adv-x="555" d="M203 -266q20 6 58.5 49t62.5 98q20 42 29 104l-107 103l135 144l150 -150q-38 -80 -103 -191l-40 -66l-43 -65l-54 -82z" />
<glyph unicode="^" horiz-adv-x="555" d="M217 824q45 44 66.5 76t40.5 87l13 26l17 35l7 29l-121 117l143 139l144 -139q-15 -36 -40.5 -87t-60.5 -113q-31 -55 -139 -218z" />
<glyph unicode="_" horiz-adv-x="555" d="M180 -254q20 0 63.5 46.5t55.5 82.5q25 45 25 108l-119 120l145 143l146 -145l-54 -105l-51 -95q-51 -97 -139 -223zM195 582l149 145l146 -145l-148 -150z" />
<glyph unicode="`" horiz-adv-x="39" d="M-590 -183q0 65 58.5 109.5t129.5 68.5q23 8 51 16t31 8l189 -116q-8 -2 -14 -3q-22 -5 -47 -8.5t-54 -8.5q-12 -2 -60.5 -14t-93.5 -43.5t-45 -81.5q0 -27 28.5 -46.5t57.5 -19.5q65 0 125 16.5t98 39t44 34.5l113 -149l-56 -22q-41 -15 -87 -26.5t-97 -11.5 q-97 0 -183 39t-137 99t-51 120z" />
<glyph unicode="a" horiz-adv-x="25" d="M-361 1407l152 137l149 -137l-149 -135z" />
<glyph unicode="b" horiz-adv-x="852" d="M0 860v170h881v-170h-193v-290h-434q-14 0 -36.5 -14t-22.5 -50q0 -53 39 -86q159 43 225 43q69 0 135.5 -44t108 -109.5t41.5 -124.5q0 -104 -80 -172q-76 -64 -156 -91l230 -188l-109 -89l-209 248q-42 -12 -113 -12q-202 0 -202 146q0 56 38 95q19 21 43 32.5t52 11.5 q75 0 111 -27t42 -51q43 5 145.5 50.5t102.5 97.5q0 64 -80 76q-53 0 -115 -14q-27 -6 -53.5 -14t-50.5 -18q-44 -16 -49 -24q-18 0 -76 62.5t-107.5 142t-49.5 129.5q0 96 65 134q31 18 61.5 28t55.5 10h246v112h-486z" />
<glyph unicode="c" horiz-adv-x="1061" d="M0 860v170h1067v-170h-131v-971l-235 138v160q-95 -56 -209 -56q-90 0 -188.5 45t-164 122.5t-65.5 166.5q0 127 104.5 202t272.5 75q50 0 85 -7l56 -10l103 -188l-93 24q-62 15 -120 15q-99 0 -152 -43l371 -125v452h-701zM228 385q0 -47 40.5 -79.5t92.5 -32.5 q87 0 163 24.5t111 46.5l-364 125q-43 -30 -43 -84z" />
<glyph unicode="d" horiz-adv-x="1342" d="M0 860v170h1366v-170h-583v-208q64 47 147 47q64 0 136 -55t120.5 -146.5t48.5 -183.5q0 -67 -36 -141t-83 -133.5t-61 -68.5l-209 146q21 0 82.5 55t108.5 126q23 37 36 74t13 71q0 33 -20 58.5t-50 25.5q-41 0 -96.5 -30t-96 -65.5t-40.5 -44.5v-498l-234 138v192 q-91 -59 -180 -59q-72 0 -140.5 46t-116.5 120q-23 36 -34.5 70.5t-11.5 68.5q0 109 74.5 170.5t159.5 83.5q40 11 71.5 17t50.5 6l115 -172l-19 -13q-49 0 -121.5 -20t-132 -60.5t-59.5 -97.5q0 -63 64 -63q46 0 106 31.5t119 74.5q28 21 47 38q3 3 8 7v393h-549z" />
<glyph unicode="e" horiz-adv-x="1082" d="M0 860v170h1096v-170h-131v-971l-232 138v348h-315v-115q0 -17 -21 -34q-21 -15 -44 -15q-51 0 -124.5 46t-129.5 112t-56 113q0 29 19.5 47t46.5 18h90v313h-199zM418 547h315v313h-315v-313z" />
<glyph unicode="f" horiz-adv-x="459" d="M0 869v170h160q-129 123 -129 243q0 82 37 141.5t106 91t160 31.5q136 0 276 -63t255.5 -148.5t193.5 -160.5q42 -39 69 -68q5 -5 11 -12l-66 -82q0 15 -59 74q-31 32 -64.5 59.5t-85.5 66.5q-43 31 -94 59.5t-108 52.5t-111.5 36t-107.5 12q-113 0 -176.5 -36 t-63.5 -129q0 -53 33.5 -110.5t42.5 -57.5h221v-170h-131v-980l-232 140v840h-137z" />
<glyph unicode="g" horiz-adv-x="936" d="M0 858v172h955v-172h-211v-284h-400q-16 0 -44.5 -12.5t-28.5 -41.5q0 -38 45 -71q51 18 155 18q101 0 188.5 -42.5t137 -103t49.5 -110.5q0 -71 -53 -112t-88 -54l-197 154q40 4 111 24.5t71 57.5q0 51 -73 51q-92 0 -169.5 -23t-124 -69t-46.5 -109q0 -64 75.5 -106 t170 -60t151.5 -18l21 -11l-37 -76q-40 0 -179.5 31.5t-265 109t-125.5 208.5q0 64 38.5 115.5t113.5 91.5q-150 93 -150 199q0 74 60 98.5t98 24.5h279v120h-527z" />
<glyph unicode="h" horiz-adv-x="459" d="M-502 1319q0 96 62 157.5t190 61.5q154 0 270 -99.5t174 -204.5t93 -195h201v-170h-131v-980l-230 140v840h-140v170h193q-34 99 -126 210t-247 111q-68 0 -105.5 -41t-37.5 -108q0 -70 41.5 -121t68.5 -72h-120q-9 2 -48.5 43.5t-73.5 109t-34 148.5z" />
<glyph unicode="i" horiz-adv-x="1012" d="M0 860v170h1020v-170h-133v-971l-229 138v278q-99 -45 -209 -45q-64 0 -145 65.5t-141 143.5t-60 109v282h-103zM324 467q0 -16 13 -38.5t46 -22.5q87 0 160 44.5t115 90.5v319h-334v-393z" />
<glyph unicode="j" horiz-adv-x="862" d="M0 860v170h895v-170h-264l15 -61l16 -89q8 -51 8 -87q0 -94 -42.5 -159t-98 -98.5t-104.5 -49.5l-58 -17l56 -64l81 -87q57 -59 129 -117l92 -72l-96 -74q-59 51 -161 150q-109 105 -217.5 243t-108.5 228q0 35 22.5 57.5t58.5 22.5h211v274h-434z" />
<glyph unicode="k" horiz-adv-x="459" d="M0 860v170h492v-170h-131v-971l-228 138v833h-133z" />
<glyph unicode="l" horiz-adv-x="1215" d="M0 860v170l1233 4v-174h-137v-971l-231 138v342q-44 -14 -88 -21.5t-82 -7.5q-79 0 -222 109q-17 -35 -55 -82q-28 -28 -84 -53l-57 -23q29 -31 53 -56q35 -36 88 -89q107 -112 197 -159l-82 -61q-6 0 -134 116q-124 112 -231.5 244t-107.5 222q0 33 24.5 55.5t59.5 22.5 h143v274h-287zM477 860q20 -62 30.5 -117t10.5 -118q0 -29 -3 -53.5t-5 -38.5q50 -37 99 -37q80 0 152 32.5t104 63.5v268h-388z" />
<glyph unicode="m" horiz-adv-x="1026" d="M0 860v170h1065v-170h-385q101 -121 101 -235q0 -69 -64 -127q33 -25 74.5 -72t76.5 -119.5t35 -154.5q0 -65 -35.5 -121.5t-101.5 -90.5q-33 -17 -72.5 -27t-84.5 -10q-194 0 -319 150.5t-178 300.5q-49 145 -65 226l84 20q4 -31 13.5 -73t25.5 -101 q32 -117 114.5 -232.5t219.5 -115.5q60 0 117.5 24.5t93 65.5t35.5 90q0 72 -32 124.5t-62 76.5q-25 -10 -70 -20l-60 -16l-49 -11l-108 188q69 0 176 27.5t107 97.5q0 51 -24 85.5t-42 49.5h-586z" />
<glyph unicode="n" horiz-adv-x="910" d="M0 860v170h953v-170h-238v-295h-358q-40 0 -83.5 -36.5t-43.5 -149.5q5 -50 39.5 -86.5t70.5 -40.5q117 0 185 27q-21 33 -21 65q0 54 39.5 83.5t103.5 29.5q65 0 107.5 -39.5t42.5 -103.5q0 -110 -115 -164l115 -191l-129 -56l-70 216q-14 -4 -32.5 -7t-47.5 -3 q-113 0 -214.5 51.5t-164.5 138t-63 183.5q0 96 50 153.5t111.5 81t96.5 23.5h184v120h-518z" />
<glyph unicode="o" horiz-adv-x="1061" d="M0 860v170h1067v-170h-131v-971l-235 138v188q-116 -80 -244 -80q-92 0 -179 55t-141.5 139t-54.5 159q0 245 377 245l62 -2l44 -2l97 -209q-62 27 -164 27q-55 0 -103 -12.5t-84 -36.5q-71 -45 -71 -125q0 -27 24.5 -50.5t63.5 -23.5q110 0 220 58t153 104v399h-701z " />
<glyph unicode="p" horiz-adv-x="1188" d="M0 860v170h1196v-170h-133v-971l-229 138v211q-51 -35 -128 -66.5t-151 -31.5q-77 0 -164 34.5t-149 94.5t-62 127q0 108 103 180h-162l-96 166h665l88 -166h-190q-8 0 -69 -44q-56 -40 -105 -99t-49 -117q0 -28 15 -39q18 -8 50 -8q88 0 205 68q62 36 109.5 68.5 t89.5 65.5v389h-834z" />
<glyph unicode="q" horiz-adv-x="39" d="M-756 -283l68 55q5 -17 43.5 -47.5t113.5 -54t185 -23.5q61 0 118 22t91 55t34 67q0 28 -16.5 43.5t-38.5 15.5q-63 0 -130 -42t-67 -79l-124 189q125 74 227 74q76 0 145.5 -41t112.5 -104t43 -120q0 -70 -49 -123.5t-123.5 -81.5t-153.5 -28q-131 0 -237.5 46.5 t-170.5 102.5t-71 74z" />
<glyph unicode="r" horiz-adv-x="1112" d="M0 860v170h1123v-170h-134v-971l-231 138v487h-367q-65 0 -108 -40t-43 -119q0 -95 75 -175q72 -75 126 -110l-86 -60q-29 20 -94 79.5t-129 161t-64 220.5q0 95 60.5 161.5t150.5 66.5h479v161h-758z" />
<glyph unicode="s" horiz-adv-x="25" d="M-697 1512h175q99 0 131 -39q61 -82 128 -193q59 -96 106 -185q42 -80 42 -89h-78l-85 133q-51 80 -103 147q-25 37 -115 37l-127 -22z" />
<glyph unicode="t" horiz-adv-x="1268" d="M0 860v170h1284v-170h-135v-971l-231 138v502h-305q30 -35 57 -97.5t27 -117.5q0 -201 -220 -201q-124 0 -222.5 108t-159 241.5t-60.5 162.5l86 37q7 -46 26 -100.5t53 -125.5q65 -135 214 -135q52 0 92.5 32.5t40.5 90.5q0 60 -31.5 117.5t-66 95.5t-45.5 39l2 21h512 v163h-918z" />
<glyph unicode="u" horiz-adv-x="1088" d="M0 860v170h1094v-170h-135v-971l-236 138v426h-327v-164q0 -20 -17 -37q-17 -14 -41 -14q-54 0 -118 56.5t-108 136.5q-22 41 -33 77t-11 70q0 24 24 40.5t52 16.5h579v225h-723z" />
<glyph unicode="v" horiz-adv-x="1395" d="M35 631l78 27l14 -19q0 -21 38 -138.5t118.5 -219t204.5 -101.5q99 0 170 48.5t71 142.5q0 65 -35 110t-65 62q-37 -7 -66 -16q-126 -27 -143 -27l-98 180q21 0 57.5 7t55.5 10q79 14 152 43.5t73 74.5q0 18 -16 42.5t-38 27.5q-68 0 -135.5 -14t-111.5 -37 q-44 -21 -50 -41l-110 196q21 13 109 35.5t155 22.5q69 0 145 -47t129 -122q27 -38 40.5 -73.5t13.5 -71.5q0 -58 -25.5 -92.5t-54.5 -48.5q51 -57 129 -57q54 0 106.5 23.5t112.5 72.5v229h-166l-108 170h639v-170h-134v-971l-231 138v387q-62 -6 -113 -6q-33 0 -66.5 11 t-74.5 34q64 -102 64 -227q0 -53 -23.5 -95.5t-67.5 -75.5q-84 -63 -215 -63q-148 0 -267.5 137.5t-190 302t-70.5 199.5z" />
<glyph unicode="w" horiz-adv-x="25" d="M-520 -203q0 97 68.5 143.5t178.5 46.5q173 0 261 -107q44 -53 72.5 -107t40.5 -109q24 -115 24 -162l-88 -20q0 19 -4 48t-13 68q-16 76 -82 154t-190 78q-148 0 -148 -86q0 -30 26.5 -44t57.5 -14q49 0 79.5 10.5t39.5 18.5l105 -139l-59 -17q-19 -4 -46.5 -7t-56.5 -3 q-53 0 -116 39.5t-106.5 99t-43.5 109.5z" />
<glyph unicode="x" horiz-adv-x="1106" d="M0 860v170h1123v-170h-134v-971l-231 138v833h-299v-518q0 -33 -11.5 -48t-56.5 -21q-46 0 -117.5 45.5t-127.5 110t-56 106.5q0 59 60 59h90v266h-240z" />
<glyph unicode="y" horiz-adv-x="1260" d="M0 860v170h1268v-170h-133v-971l-234 138v483q-64 49 -104 49q-49 0 -73.5 -38.5t-24.5 -67.5v-256l-203 90v201q0 17 -25.5 48.5t-74.5 31.5q-71 0 -109.5 -54.5t-38.5 -113.5q0 -100 66 -187q63 -84 145.5 -138t105.5 -54l-98 -74q-11 7 -19 12q-22 15 -54 38 q-35 26 -69 56q-40 35 -76 70q-75 75 -133 174.5t-58 202.5t64 166t196 63q105 0 209 -125q84 111 194 111q79 0 180 -92v237h-901z" />
<glyph unicode="z" horiz-adv-x="17" d="M-916 39l711 455v-205l-573 -412z" />
<glyph unicode="{" horiz-adv-x="725" d="M47 430q0 59 36 108t82.5 83t86.5 53q-147 93 -147 199q0 184 274 184q68 0 128.5 -34t96 -92.5t35.5 -123.5q0 -94 -82 -160q21 -2 48 -3t83 -1q18 0 41.5 6.5t52 18.5t53.5 23.5t36 17.5v-197l-57 -5l-97 -5q-46 0 -64 4t-34.5 9t-30.5 11l-68 32l-47 24l-98 -62 l-66 -47q-50 -35 -83 -68q-27 -29 -27 -57q0 -84 137 -84q59 0 86 9q0 40 26 85.5t101 45.5q49 0 80 -34q33 -33 33 -79q0 -69 -42.5 -108.5t-92.5 -53.5l86 -139l-136 -54l-41 177q-66 0 -151 18.5t-161.5 90t-76.5 208.5zM277 826q0 -51 59 -95l37 20q35 17 49 30 q36 19 48 35.5t12 45.5q0 62 -76 62q-48 0 -88.5 -30t-40.5 -68z" />
<glyph unicode="|" horiz-adv-x="1151" d="M0 860v170h1180v-170h-135v-971l-232 138v82q-149 -111 -327 -111q-87 0 -180 46.5t-153.5 117t-60.5 137.5q0 99 101 156q-127 69 -127 184q0 68 58 97.5t99 29.5h185v94h-408zM234 535q0 -25 15.5 -39t23.5 -14l12 4q6 2 21 4.5t25 3.5l67 4l81 -2l56 -2l94 -176 q-28 4 -65 7t-68 3l-51 -2q-176 -20 -176 -129q0 -25 21.5 -43.5t59.5 -18.5q104 0 209 44q109 48 178 99q76 54 76 60v522h-196v-251h-305q-78 0 -78 -74z" />
<glyph unicode="}" horiz-adv-x="1026" d="M0 858v172h1071v-172h-254v-272h-313q-62 0 -97.5 -40t-35.5 -110l4 -51q11 -66 35 -92.5t65 -26.5q96 0 154 52q-18 36 -18 78q0 45 41 72.5t94 27.5q57 0 95 -38.5t38 -92.5q0 -117 -70 -160l221 -310l-127 -57l-94 177q-47 -64 -134.5 -123.5t-199.5 -59.5 q-102 0 -193.5 39t-145.5 103.5t-54 132.5q0 49 35.5 92.5t84 76.5t83.5 50q-82 111 -82 229q0 89 66 141t161 52h191v110h-621zM242 37q0 -82 90 -82q60 0 112 12.5t99 36.5q86 43 131.5 91.5t52.5 68.5l-2 8q-54 -22 -121 -22q-130 0 -192 43q-48 -18 -107 -60 q-31 -21 -47 -45t-16 -51z" />
<glyph unicode="~" horiz-adv-x="25" d="M-428 -223l90 12q30 4 51 6t41 2q119 0 174 -70q71 -88 130 -172l84 -123l-72 -43l-175 228q-15 24 -90 24q-34 0 -74.5 -16t-60.5 -27z" />
<glyph horiz-adv-x="1123" d="M117 293l336 309l-336 310l104 102l340 -311l342 311l107 -102l-340 -310l340 -307l-107 -98l-342 307l-340 -307z" />
<glyph unicode="&#xa1;" horiz-adv-x="4" d="M-768 1362l86 58q0 -17 35 -64.5t100 -88t147 -40.5q154 15 199 215l162 -104q-20 -60 -85.5 -138t-213.5 -94q-174 0 -284 96.5t-146 159.5zM-555 1401l112 123l125 -98l-102 -119z" />
<glyph unicode="&#xa2;" />
<glyph unicode="&#xa3;" horiz-adv-x="459" d="M0 869v170h160q-129 123 -129 243q0 121 83 188.5t226 67.5q239 0 490 -200q-2 5 -7.5 23.5t-5.5 29.5q0 85 53 135.5t140 50.5q94 0 140.5 -28.5t58.5 -47.5l-15 -73l-33 17q-25 11 -57 11q-141 0 -141 -147q0 -53 60 -118q31 -31 56.5 -54.5t45.5 -38.5l-76 -84 q0 14 -54.5 73.5t-139 123t-190 109.5t-212.5 46q-115 0 -182.5 -32.5t-67.5 -126.5q0 -53 33.5 -110.5t42.5 -57.5h221v-170h-131v-980l-232 140v840h-137z" />
<glyph unicode="&#xa4;" horiz-adv-x="25" d="M-426 -125q0 74 87.5 103t149.5 35l80 -130q-203 0 -203 -53q3 -31 62 -49q46 21 96 34q21 3 41.5 5t42.5 2l76 -76q0 -6 -63.5 -25.5t-106.5 -42.5t-43 -59q0 -33 70 -33q57 0 111.5 32t54.5 56l123 -139l-74 -25q-71 -24 -131 -24q-33 0 -62 5t-62 18 q-62 24 -101.5 61.5t-45.5 76.5q0 73 25 91q-43 16 -85 53t-42 84z" />
<glyph unicode="&#xa5;" horiz-adv-x="459" d="M0 865v169h158q-127 127 -127 244q0 120 82.5 187t224.5 67q69 0 137 -15t139 -47q138 -61 249 -144t187 -155.5t79 -80.5l-66 -82q0 14 -56.5 72t-146.5 123t-198 111t-213 46q-117 0 -181.5 -32.5t-64.5 -125.5q0 -53 32.5 -110.5t41.5 -57.5h219v-169h-129v-976 l-232 140v836h-135zM922 1426l145 133l152 -133l-152 -138z" />
<glyph unicode="&#xa6;" />
<glyph unicode="&#xa7;" horiz-adv-x="1012" d="M-23 893v158h1088v-158h-397v-115q74 -18 115 -59q57 -68 57 -164q0 -107 -113 -190q-24 -16 -84 -45v-150q49 -4 115 -51q72 -53 72 -136q0 -130 -117 -211q-58 -36 -124 -55.5t-134 -19.5q-162 0 -279 80q-63 47 -96 106t-33 130q0 74 60 143q68 59 147 59h215v78 q-79 0 -190.5 40.5t-168.5 115t-57 182.5q0 86 72 141.5t164 55.5h205v65h-517zM195 -47q0 -18 6 -35q2 -11 47 -33q32 -10 64 -16t69 -6h15q8 0 16 2q155 15 213 36q70 30 70 101q0 31 -37 43l-20 2l-34 6h-333q-29 0 -52 -24q-24 -35 -24 -76zM199 561q6 -62 76 -90 q44 -8 68.5 -11t60.5 -3q150 0 227 43q37 20 56.5 44.5t19.5 53.5q0 48 -29 68l-16 2l-33 6h-338q-44 0 -70 -35q-22 -26 -22 -78z" />
<glyph unicode="&#xa8;" horiz-adv-x="25" d="M-781 -473l58 86q7 -26 47 -74.5t118 -89.5t185 -41q88 0 162 41.5t74 81.5q0 18 -5.5 28.5t-29.5 10.5q-58 0 -111.5 -18t-86 -43.5t-32.5 -41.5l-118 131q24 25 99.5 66t149.5 41q60 0 119 -30t97 -80t38 -107q0 -41 -21 -76.5t-61 -64.5q-81 -58 -213 -58 q-103 0 -190 33q-46 18 -80.5 36t-66.5 42q-60 43 -95 81.5t-37 45.5z" />
<glyph unicode="&#xa9;" horiz-adv-x="39" d="M-631 -482q0 90 69.5 128t153.5 38q134 0 228 -52q91 -49 145.5 -121t76.5 -128.5t24 -74.5l-91 -19q0 24 -29 85.5t-103 116t-198 54.5q-53 0 -93 -26t-40 -68q0 -51 54 -51q53 0 98 30.5t70 55.5l92 -150q-32 -21 -78.5 -33t-106.5 -12q-44 0 -110.5 32.5t-114 85.5 t-47.5 109z" />
<glyph unicode="&#xaa;" horiz-adv-x="39" d="M-713 -269l399 312l398 -359l-115 -69l-256 272l-252 -276z" />
<glyph unicode="&#xab;" horiz-adv-x="623" d="M0 860v170h656v-170h-656zM43 674l165 20q115 13 179 13q76 0 135 -53q240 -194 240 -199v-182l-465 -252l-119 202l500 181l-119 94q-33 22 -65 32.5t-66 10.5q-26 -5 -58 -14t-82 -26l-138 -48z" />
<glyph unicode="&#xac;" horiz-adv-x="1692" d="M84 576l94 39q0 -38 31.5 -144.5t107 -201.5t195.5 -95q59 0 119.5 31.5t60.5 110.5q0 81 -34.5 134.5t-63.5 71.5q-13 -8 -59 -18q-15 0 -53 -10l-50 -12l-86 182l21 8q31 0 101.5 13.5t124.5 37t54 55.5q0 49 -37.5 73t-123.5 24q-45 0 -95.5 -14t-84.5 -31 q-11 -5 -26 -14q-4 -2 -9 -5l-21 4l-70 176q20 12 106.5 33t156.5 21q81 0 150.5 -49.5t109 -132.5t39.5 -168q0 -100 -84 -144q70 -29 100 -29q62 0 88 44t73 163.5t104.5 179.5t166.5 60q76 0 166 -65t150.5 -161.5t60.5 -185.5q0 -191 -68 -270q-34 -39 -83.5 -61.5 t-112.5 -22.5q-57 0 -118.5 39t-108.5 88t-50 66l68 63q15 -54 40 -90.5t89 -36.5q80 0 112.5 91t32.5 272q0 55 -26 86.5t-76 31.5q-77 0 -110 -46.5t-72 -149.5q-35 -99 -84.5 -153t-149.5 -54q-27 0 -98 35q102 -122 102 -236q0 -115 -75.5 -174.5t-169.5 -59.5 q-122 0 -220.5 83.5t-164.5 195.5q-32 56 -57 107t-46 103q-35 97 -37 112zM463 1360l62 53q19 -53 89.5 -116.5t221.5 -63.5q105 0 173 46.5t100 102t32 81.5l158 -158l-34 -50q-22 -34 -71 -80q-45 -42 -122.5 -75t-176.5 -33q-86 0 -163.5 39.5t-134 93t-95.5 103.5 q-17 22 -27 37.5t-12 19.5zM735 1420l127 116l127 -110l-120 -123z" />
<glyph unicode="&#xad;" />
<glyph unicode="&#xae;" horiz-adv-x="25" d="M-721 1327l98 4q35 0 70 -12q47 -21 111 -122q58 -91 98 -165l-82 -4l-57 89q-37 56 -48 63l-68 -3l-53 -5zM-711 1579l191 2q80 0 141 -67q54 -66 116.5 -227.5t92.5 -254.5l-80 -4q0 10 -150 330q-13 32 -35 50q-22 16 -63 16l-133 -17zM-283 1440l125 115l133 -117 l-131 -119z" />
<glyph unicode="&#xaf;" />
<glyph unicode="&#xb0;" horiz-adv-x="459" d="M-502 1315q0 94 62 155.5t190 61.5q154 0 269.5 -98t175.5 -206q56 -103 92 -194h201v-169h-131v-976l-230 140v836h-140v169h193q-19 56 -62.5 127t-123 132t-187.5 61q-68 0 -105.5 -39.5t-37.5 -107.5q0 -70 40.5 -119t69.5 -72h-120q-10 2 -49 42t-73 107.5 t-34 149.5zM152 1434l143 133l152 -135l-152 -133z" />
<glyph unicode="&#xb1;" horiz-adv-x="39" d="M-344 1331q0 94 54 158t173 64q56 0 104 -19t74 -41q11 -8 22 -19l7 -7l-30 -68q-8 7 -33 19t-62 12q-61 0 -107.5 -45.5t-46.5 -122.5q0 -52 19.5 -101t42.5 -80q12 -17 23 -28q2 -2 5 -4v-21h-84q-18 18 -45 51.5t-56 73.5q-60 87 -60 178zM-135 1243l110 105l117 -105 l-117 -102z" />
<glyph unicode="&#xb2;" horiz-adv-x="459" d="M0 869v170h158q-127 126 -127 243q0 121 82.5 188.5t224.5 67.5q98 0 189.5 -32t166.5 -77.5t130 -90.5q-13 24 -13 53q0 84 53.5 135t139.5 51q95 0 139.5 -26t54.5 -43l-12 -80q-8 8 -33.5 21.5t-56.5 13.5q-141 0 -141 -154q0 -54 60 -117q57 -60 101 -94l-75 -84 q0 15 -54 74q-27 29 -62 59.5t-76 62.5q-82 63 -188 109.5t-212 46.5q-114 0 -180 -32.5t-66 -126.5q0 -52 32.5 -110t41.5 -58h221v-170h-131v-980l-230 140v840h-137zM1006 1311l112 100l111 -100l-113 -104z" />
<glyph unicode="&#xb3;" horiz-adv-x="1037" d="M0 860v170h1084v-170h-379v-274h-344q-33 0 -58.5 -26t-25.5 -78q0 -39 39 -56q123 53 194 53q60 0 127 -26t115.5 -88.5t48.5 -159.5q0 -106 -78 -181t-219 -75q-60 0 -118 19t-111 58q-108 79 -176 172.5t-68 117.5l82 47q0 -27 32 -84.5t105.5 -107.5t190.5 -50 q56 0 117 22.5t101 57t40 68.5q0 51 -68 51q-88 0 -154 -29t-98 -51q-10 0 -80 73q-34 35 -67 77q-29 37 -61 84q-58 86 -58 147q0 58 44.5 93.5t111.5 35.5h241v110h-510zM717 510l154 139l147 -141l-147 -133z" />
<glyph unicode="&#xb4;" horiz-adv-x="826" d="M0 860v170h854v-170h-854zM27 467l78 45q0 -19 33 -81q18 -32 42 -58t60 -53q68 -51 168 -51q65 0 115.5 32t77 80.5t26.5 97.5q0 69 -34.5 100.5t-67.5 31.5q-76 0 -150.5 -32.5t-81.5 -56.5l-115 207q115 37 207 37q112 0 186 -51t108 -110t46 -103q35 0 123 20 q29 9 67 34l40 28h22v-201l-39 -3l-57 -3q-36 0 -51 4q-37 12 -92 45l2 -80q0 -71 -34.5 -131.5t-97.5 -94.5t-139 -34q-90 0 -170 52q-39 25 -73 55t-67 69q-27 32 -53.5 69.5t-43.5 64.5q-35 62 -35 71z" />
<glyph unicode="&#xb5;" horiz-adv-x="1391" d="M31 453v121h1280v-121h-1280z" />
<glyph unicode="&#xb6;" horiz-adv-x="940" d="M0 860v170h971v-170h-188v-229q66 57 147 57q72 0 107 -26v-164l-35 3l-60 3q-55 0 -89.5 -24t-52 -53.5t-17.5 -41.5v-496l-236 138v258q-31 -15 -60 -22t-67 -7q-56 0 -114 38.5t-106 92.5q-19 21 -41.5 51t-35.5 50q-29 47 -31 57v315h-92zM314 432q0 -43 45 -43 q33 0 76 26t77 57q17 15 30 30q2 2 5 6v352h-233v-428z" />
<glyph unicode="&#xb7;" horiz-adv-x="1135" d="M125 135l70 97q6 -19 66 -66t142.5 -86t149.5 -39q104 0 156.5 49.5t52.5 145.5q0 120 -77 197t-226 157.5t-218 135t-69 143.5q0 91 63.5 126t106.5 35h541v-170h-385q-55 0 -88 -9t-33 -44q0 -56 54.5 -91t229.5 -132t259 -178t84 -191q0 -107 -57 -171.5t-146.5 -92 t-183.5 -27.5q-92 0 -201.5 44.5t-199.5 101.5t-91 65z" />
<glyph unicode="&#xb8;" horiz-adv-x="613" d="M0 860v170h647v-170h-268q49 -55 74.5 -109t25.5 -106q0 -122 -78 -167q-39 -21 -79.5 -33.5t-77.5 -12.5q13 -40 43 -74t86 -34q76 0 160 36q39 17 76 37.5t69 42.5q60 43 62 50h22v-236q-4 -4 -48 -29q-42 -22 -105 -42q-31 -9 -63 -14t-67 -5q-143 0 -236 97t-134 207 t-41 143q15 -5 43 -5q78 0 147.5 26t69.5 87q0 43 -15 75t-32 49q-7 7 -15 13q-2 2 -6 4h-260z" />
<glyph unicode="&#xb9;" horiz-adv-x="1303" d="M170 869h357l106 292l105 -292h366l-291 -203l111 -307l-293 186l-291 -199l117 320z" />
<glyph unicode="&#xba;" horiz-adv-x="713" d="M0 858v172h742v-172h-117v-278h-266q-88 0 -88 -70q0 -20 34.5 -45.5t44.5 -25.5h478v-185h-439q-41 0 -70.5 -27.5t-29.5 -86.5q0 -98 142 -152.5t239 -71.5l-35 -80q-29 0 -168 46.5t-257 132t-118 202.5q0 149 154 209q-156 87 -156 189q0 77 59 105t107 28h166v110 h-422z" />
<glyph unicode="&#xbb;" horiz-adv-x="1270" d="M17 463v139h1214v-139h-1214zM527 74v190h211v-190h-211zM527 811v193h211v-193h-211z" />
<glyph unicode="&#xbc;" horiz-adv-x="1348" d="M0 860v170h1499v-170h-256v-295h-305q-57 0 -116.5 -23t-59.5 -103q0 -87 64.5 -127.5t121.5 -40.5q49 0 78 10q-12 17 -12 61q0 55 50 82t110 27q63 0 102 -42t39 -102q0 -42 -27 -73t-58 -50l-62 -30l147 -234l-143 -43l-107 252q-71 -56 -192 -111t-262 -55 q-125 0 -226.5 46.5t-101.5 144.5q0 48 26 80q-90 29 -177 91.5t-87 170.5q0 76 44 134t153 58q83 0 146 -42t63 -121q0 -46 -25.5 -74t-44.5 -37l-61 33l4 18q7 0 19 12.5t12 32.5q0 27 -18 40t-44 13q-36 0 -62 -25.5t-26 -86.5q15 -116 170 -154q20 16 61 25l65 17l34 5 l123 -143q-51 0 -123 -15.5t-72 -66.5q0 -63 127 -63q38 0 71.5 6t67.5 20q67 27 110 59.5t44 41.5q-45 10 -112 53.5t-119 115.5q-26 37 -39 75.5t-13 82.5q0 137 90.5 183.5t169.5 46.5h185v120h-1045z" />
<glyph unicode="&#xbd;" horiz-adv-x="1379" d="M0 860v170h1399v-170h-602v-352l79 36l79 36q-27 32 -27 92q22 94 135 94q59 0 96 -37t37 -90q0 -81 -88 -114l137 -240l-16 -12q-23 0 -75 -16.5t-96 -52.5t-44 -87q0 -30 20 -51t39 -21q65 0 121 23.5t58 32.5l18 4l94 -154q-16 -16 -68 -35t-132 -19q-56 0 -117.5 45 t-103.5 111t-42 119q0 112 55.5 167.5t114.5 76.5l-51 74l-223 -111v-494l-225 136v231l-338 -207l-90 203l428 182v6l-103 115q-23 29 -80 29q-40 -9 -131 -54.5t-98 -70.5l-117 221l264 64q112 0 158 -64q57 -68 107 -113v297h-572z" />
<glyph unicode="&#xbe;" horiz-adv-x="1123" d="M140 410v129h864v-129h-864zM140 645v129h864v-129h-864z" />
<glyph unicode="&#xbf;" horiz-adv-x="1379" d="M0 858v172h1393v-172h-598v-346l156 70q-27 38 -27 96q23 92 135 92q37 0 68 -17.5t48 -47.5t17 -62q0 -41 -29 -72t-59 -44l129 -209l-18 -11q-52 0 -139 -30t-87 -80q0 -12 5.5 -19.5t15.5 -12.5l20 -7q12 -4 23 -4q27 0 73 15.5t81 36.5t38 36l86 -174q-10 0 -66 -17 q-24 -7 -44 -12t-37 -8l-47 -4q-23 0 -34 1.5t-32 6.5q-39 -33 -39 -68q0 -66 58 -66q73 0 136.5 17t63.5 24l21 2l92 -151l-72 -22q-68 -21 -122 -21q-58 0 -120 22.5t-105 66.5q-21 22 -33.5 49t-12.5 56q0 82 58 124q-30 24 -64.5 71t-34.5 78q0 92 53 141.5t111 67.5 l-45 64l-221 -109v-506l-225 138v231l-336 -207l-90 203l426 186v6l-103 115q-23 29 -80 29q-39 -9 -131 -55t-96 -70l-117 223l262 61l33 5q75 0 125 -66q17 -21 46.5 -52.5t60.5 -62.5v299h-570z" />
<glyph unicode="&#xc0;" />
<glyph unicode="&#xc1;" horiz-adv-x="1065" d="M0 860v170h1084v-170h-379v-178h-344q-34 0 -59 -22t-25 -64q0 -27 39 -39l53 15q18 5 38 10.5t41 9.5q38 8 62 8q61 0 128.5 -22.5t115 -73t47.5 -127.5q0 -69 -52.5 -123.5t-154.5 -75.5l17 -88q50 35 118 35q53 0 112 -37.5t97.5 -96.5t38.5 -118q0 -43 -29 -93 t-66 -87t-50 -46l-185 103q23 0 76 33.5t93 82t40 91.5q0 18 -17 33.5t-38 15.5q-36 0 -78.5 -18.5t-76 -40t-33.5 -27.5l2 -326l-189 92v121q-69 -37 -143 -37q-86 0 -165 65q-38 32 -58.5 66.5t-20.5 67.5q0 71 61 111.5t132 56t98 15.5l88 -113l-18 -12q-38 0 -95 -12.5 t-103 -38.5t-46 -62q0 -39 49 -39q36 0 87 21q23 10 44 20.5t47.5 26.5t36.5 23q2 1 6 5v207q-79 15 -152.5 56t-125 88t-84.5 89.5t-33 51.5l82 41q0 -22 33 -68.5t106 -85t189 -38.5q27 0 56.5 4t59.5 13q59 16 100.5 43.5t41.5 55.5q0 41 -68 41q-88 0 -155 -23t-97 -40 q-10 0 -80.5 59t-128 127.5t-57.5 118.5q0 44 45 74t111 30h241v45h-510zM715 623l156 108l147 -110l-149 -109z" />
<glyph unicode="&#xc2;" horiz-adv-x="1061" d="M0 860v170h1084v-170h-379v-206h-344q-33 0 -58.5 -22.5t-25.5 -63.5q0 -31 41 -41q141 41 192 41q30 0 60 -5t67 -17q66 -22 115 -72t49 -128q0 -83 -72 -139v-545l-188 110v370h-37q-61 0 -98 10v-236q0 -24 -8 -38t-43 -20q-44 0 -102.5 27t-102 67t-43.5 77 q0 45 49 45h70v156q-81 53 -138 119.5t-57 84.5l82 41q0 -20 32 -65.5t106.5 -85t189.5 -39.5q90 0 174 35.5t84 77.5q0 41 -68 41q-88 0 -156 -24t-96 -40q-10 0 -81 59q-66 55 -128 128q-57 69 -57 118q0 43 45 74t111 31h241v75h-510zM715 592l156 109l147 -111 l-149 -108z" />
<glyph unicode="&#xc3;" />
<glyph unicode="&#xc4;" />
<glyph unicode="&#xc5;" horiz-adv-x="1442" d="M0 860v170h1467v-170h-772q90 -107 90 -233q0 -63 -56 -119l35 -39q31 22 79.5 47.5t113.5 50.5q60 21 104 21q37 0 73.5 -13t72.5 -38q69 -49 114 -131t45 -166q0 -81 -37.5 -153t-86.5 -125l-62 -67l-193 150q19 0 83 51t115.5 118.5t51.5 127.5q0 105 -84 105 q-48 0 -110 -31q-35 -18 -60 -33.5t-51 -35.5q-49 -37 -49 -48q1 -2 3 -4q2 -8 8 -31.5t10 -54t4 -53.5q0 -98 -81 -172t-214 -74q-196 0 -322 149t-177.5 299.5t-66.5 223.5l84 31q8 -58 40 -176.5t116 -235.5t223 -117q56 0 115 23.5t95 64.5t36 90q0 115 -96 201 q-16 -6 -30.5 -10t-39.5 -10l-64 -17l-47 -10l-110 186q67 0 173.5 27t106.5 96q0 54 -26.5 94.5t-34.5 40.5h-588z" />
<glyph unicode="&#xc6;" />
<glyph unicode="&#xc7;" />
<glyph unicode="&#xc8;" />
<glyph unicode="&#xc9;" />
<glyph unicode="&#xca;" horiz-adv-x="881" d="M0 858v172h893v-172h-266v-278h-268q-88 0 -88 -70q0 -21 35 -47q35 -24 44 -24h480v-177v-363l-119 76v128h-113v-74q0 -11 -9 -21t-21 -10q-41 0 -88.5 60.5t-47.5 111.5q0 14 12.5 23.5t28.5 9.5h238v49h-320q-41 0 -70.5 -27t-29.5 -85q0 -99 132 -179t222 -115 l-32 -78q-9 0 -95 36.5t-185.5 98t-170 141.5t-70.5 171q0 151 154 211q-156 87 -156 189q0 77 59 105t107 28h166v110h-422z" />
<glyph unicode="&#xcb;" />
<glyph unicode="&#xcc;" />
<glyph unicode="&#xcd;" />
<glyph unicode="&#xce;" horiz-adv-x="883" d="M0 858v172h987v-172h-231v-272h-418q-15 0 -43.5 -10t-28.5 -43q0 -42 31 -66q90 19 162 19q120 0 217.5 -40t154 -113.5t56.5 -170.5q0 -107 -46 -177t-83 -88l-137 113l14 17q4 3 6 4q17 11 35 26q35 29 66.5 77t31.5 106q0 48 -36 63l-238 -233l-143 102l268 168 q-76 17 -100 17q-84 0 -147.5 -33t-96.5 -86t-33 -111q0 -127 145 -199q72 -35 132 -57.5t110 -34.5l-41 -74q-13 0 -94.5 25.5t-179.5 80t-168 147.5t-70 217q0 136 135 198q-127 88 -127 195q0 72 52 94.5t106 22.5h297v116h-545z" />
<glyph unicode="&#xcf;" horiz-adv-x="1342" d="M0 858v172h1366v-172h-583v-211q63 48 147 48q66 0 137 -55.5t119.5 -148t48.5 -186.5q0 -66 -36 -142t-81.5 -135t-62.5 -69l-209 148q14 0 53.5 30.5t84.5 80.5q22 25 39 50t33 56q30 57 30 112q0 34 -20 59t-50 25q-42 0 -96 -30t-95.5 -66t-41.5 -45v-502l-39 22 q-43 -5 -45.5 -5.5t-77 -14t-132 -46.5t-57.5 -91q0 -28 31 -47q30 -21 59 -21q104 0 192.5 24.5t104.5 43.5l105 -150q-17 -11 -97 -26t-161 -15q-102 0 -189.5 39.5t-140.5 101.5t-53 125q0 84 91.5 135t174.5 69v190q-92 -61 -180 -61q-70 0 -140.5 47.5t-116.5 121.5 t-46 140q0 110 74 171.5t160 84.5t122 23l115 -175l-19 -12q-49 0 -122 -19.5t-132 -61t-59 -99.5q0 -64 64 -64q43 0 108 34t118.5 74t53.5 46v397h-549z" />
<glyph unicode="&#xd0;" />
<glyph unicode="&#xd1;" />
<glyph unicode="&#xd2;" horiz-adv-x="1424" d="M0 860v170h1448v-170h-133v-975l-229 138v108l-641 -281l-174 152l338 97q-92 23 -219.5 83.5t-228.5 155.5t-101 213q0 29 19.5 52.5t51.5 23.5h84v233h-215zM285 377q108 -85 192 -129l105 -44l111 -42l71 -25l322 105v82q-105 -60 -213 -60q-78 0 -152.5 47.5 t-120 118.5t-45.5 135q0 89 67.5 136t178.5 47q131 0 184 -8l64 -175l-62 8q-53 9 -102 9l-103 -19q-32 -8 -58.5 -27.5t-26.5 -56.5q0 -69 75 -69q85 0 173.5 39t140.5 82v329h-664l8 -64l9 -83l4 -74q0 -110 -52 -174t-106 -88z" />
<glyph unicode="&#xd3;" horiz-adv-x="830" d="M70 262q0 74 36 116t103 42q59 0 91.5 -26t41.5 -58q68 33 105 82q43 53 65 109q-63 0 -140 22q-63 18 -149 56q-153 69 -153 235q0 61 32 107t85.5 71t107.5 25q100 0 198.5 -68.5t161 -177.5t62.5 -223q0 -126 -45.5 -213.5t-102 -133t-102.5 -63.5l29 -29l41 -38 q28 -24 46 -39q35 -29 52 -42q28 -20 53 -20l-149 -97q-18 30 -98 132q-43 59 -66 102q-59 -14 -109 -14q-80 0 -138 44t-58 99zM246 746q11 -104 281 -137l-2 45q0 101 -25 182.5t-94 81.5q-63 0 -111.5 -51.5t-48.5 -120.5zM635 1030h225v-170h-137z" />
<glyph unicode="&#xd4;" />
<glyph unicode="&#xd5;" horiz-adv-x="918" d="M0 858v172h951v-172h-236v-297h-326q-72 0 -119 -31.5t-47 -131.5q4 -45 40.5 -85t95.5 -40q107 0 178 32q-17 19 -17 68q0 109 138 109q40 0 71.5 -19t49.5 -52t18 -69q0 -105 -80 -170l102 -273l-18 -4q-77 -7 -195 -39.5t-118 -101.5q0 -61 82 -61q99 0 178 36.5 t104 63.5l94 -168l-74 -31q-52 -22 -122 -22q-111 0 -204.5 34.5t-150.5 95.5t-57 136q0 88 108 132t212 57l-41 113q-30 -11 -92 -11q-106 0 -208.5 48.5t-171.5 131.5q-34 42 -51.5 84.5t-17.5 88.5q0 97 51 152.5t110 74.5q30 10 53.5 15t43.5 5h184v129h-518z" />
<glyph unicode="&#xd6;" horiz-adv-x="815" d="M0 860v170h854v-170h-196v-251h-416q-16 0 -33 -14q-14 -14 -14 -32q0 -29 16.5 -49t26.5 -20l60 15q69 16 108 16q30 0 58 -5t50 -13q43 -15 74 -37l35 -21q37 -13 69 -13q59 0 114.5 25.5t105.5 59.5l53 36v-207l-44 -18q-21 -8 -41.5 -13t-39.5 -5q-91 0 -156 34 q19 -44 19 -92q0 -87 -64.5 -132t-140.5 -60l156 -113l-99 -74l-164 156q-16 -4 -79 -4q-80 0 -147.5 28t-67.5 105q0 50 36.5 82.5t89.5 32.5q57 0 86 -26t37 -50q30 0 92 17t111 45t49 61q-2 24 -19.5 36.5t-51.5 12.5q-72 0 -153 -16t-87 -29q-17 0 -71 52.5t-97 117.5 q-22 34 -35.5 65.5t-13.5 57.5q0 57 39.5 101t99.5 44h254v94h-463z" />
<glyph unicode="&#xd7;" />
<glyph unicode="&#xd8;" horiz-adv-x="1333" d="M0 860v170h1360v-170h-577v-227q56 47 147 47q66 0 137.5 -56t119.5 -145t48 -182q0 -67 -36 -138q-17 -34 -38 -65t-43 -58q-45 -52 -63 -65l-209 146q21 0 84.5 49t114.5 118t51 136q0 35 -21 59.5t-53 24.5q-43 0 -99.5 -29t-98 -62.5t-41.5 -41.5v-482l-234 138v211 l-332 -215l-166 125l240 121q-79 15 -152 63t-73 133q0 108 74 169t161.5 83.5t118.5 22.5l117 -170l-19 -13q-3 4 -30 4q-88 0 -177.5 -35t-89.5 -112q0 -78 152 -78q12 0 94 42.5t82 47.5v434h-549z" />
<glyph unicode="&#xd9;" horiz-adv-x="797" d="M0 858v172h830v-172h-830zM17 721h942v-182h-283q-51 0 -104 -24.5t-90 -78t-37 -129.5q0 -98 45 -167.5t103.5 -105.5t88.5 -36l-84 -68q-5 0 -67 38t-133.5 98.5t-124 136t-52.5 154.5q0 119 78 182h-188z" />
<glyph unicode="&#xda;" horiz-adv-x="1297" d="M-23 189q0 74 76 114q68 35 146 35q69 0 126 -20.5t71 -40.5l135 -203l125 72q-63 31 -116.5 83t-84.5 116t-31 132q0 97 50.5 156t111 82t96.5 23h189v120h-873v172h1311v-172h-244v-295h-358q-39 0 -84 -37.5t-45 -152.5q5 -50 39.5 -86t72.5 -41q113 0 187 27 q-23 34 -23 67q0 54 40 83.5t102 29.5q67 0 110 -39.5t43 -104.5q0 -66 -37.5 -106t-77.5 -59l115 -191l-131 -58l-72 216l-22.5 -4.5t-38.5 -3.5l-279 -161l60 -92l4 -12q0 -19 -35 -49q-14 -10 -65 -10q-85 0 -183 28.5t-125 69.5q-8 15 -10 31q0 26 25 36l90 46l-39 72 q-78 -37 -154 -37q-114 0 -178 98q-19 29 -19 66zM123 209q0 -25 19 -59q35 -51 96 -51q24 0 45 6l31 10l-21 -6l-84 127q-9 26 -39 26q-9 0 -16 -4q-31 -17 -31 -49z" />
<glyph unicode="&#xdb;" horiz-adv-x="15" d="M-1000 -37l140 129l139 -129l-139 -123z" />
<glyph unicode="&#xdc;" horiz-adv-x="826" d="M-15 549q50 6 230 55l47 14l45 17l35 14q-71 29 -140 87.5t-69 132.5q0 61 32 105t97 66.5t158 22.5q71 0 145 -40t122 -107.5t48 -143.5q0 -91 -102 -170l336 -143v-121l-426 205l-101 -47l-110 -51q-91 -34 -138 -50t-61 -18zM318 795q0 -28 51 -63t61 -35q8 0 46 24 q37 26 66.5 64t29.5 84q0 73 -45 73q-49 0 -98 -18t-80 -51t-31 -78z" />
<glyph unicode="&#xdd;" horiz-adv-x="1299" d="M0 860v170h1333v-170h-542l-5 -125l-3 -118q92 57 188 57q88 0 149.5 -54t93 -140t31.5 -177q0 -165 -129 -348l-225 144q19 0 77.5 59t106.5 136t48 128q0 82 -80 82q-93 0 -252 -123v-492l-230 138v242l-344 -292l-166 171l281 194l-235 168v350h-97zM316 471l94 -69 l151 102v356h-245v-389z" />
<glyph unicode="&#xde;" horiz-adv-x="1000" d="M217 824q47 43 71 77q13 17 23 37t21 49l14 31l14 31l7 28l-125 117l149 139l154 -139q-27 -61 -109 -200q-52 -88 -145 -218zM600 824q52 42 76 77q11 16 22 38t19 48l14 28l16 33q2 7 3 13.5t2 15.5l-125 117l151 139l152 -141q-28 -70 -107 -197t-147 -219z" />
<glyph unicode="&#xdf;" horiz-adv-x="1000" d="M160 905q65 126 109 193q59 108 149 219l74 -43q-24 -20 -44 -40t-33 -37q-26 -35 -42 -85l-19 -43q-16 -30 -16 -51l129 -115l-153 -141zM547 905q49 100 109 193q49 93 151 219l70 -43q-47 -39 -71.5 -72.5t-47.5 -89.5q-3 -13 -17.5 -41.5t-17.5 -52.5l129 -115 l-153 -141z" />
<glyph unicode="&#xe0;" horiz-adv-x="910" d="M0 858v172h918v-172h-291v-278h-268q-88 0 -88 -70q0 -21 35 -47q35 -24 44 -24h480v-177v-416l-125 66v71q-47 -28 -111 -28q-47 0 -88 25q-43 24 -68.5 62.5t-25.5 74.5q0 109 182 109l33 -2l22 -1l41 -81l-18 -13q0 8 -57 8q-121 -13 -121 -69q0 -12 11 -21.5t26 -9.5 q84 0 174 66v149h-314q-41 0 -70.5 -27t-29.5 -85q0 -99 142 -180q70 -39 130.5 -68t106.5 -46l-33 -78q-19 0 -163 65q-68 31 -135.5 73t-126.5 91q-120 101 -120 218q0 151 154 211q-156 87 -156 189q0 77 59 105t107 28h166v110h-422z" />
<glyph unicode="&#xe1;" horiz-adv-x="1344" d="M0 858v172h1372v-172h-137v-1006l-231 142v68q-44 -36 -117.5 -70.5t-151.5 -34.5q-116 0 -182.5 61.5t-94.5 133t-28 94.5h23q16 0 74 16.5t104.5 42t46.5 52.5q0 30 -49 30q-75 0 -142 -15.5t-123 -45.5q-110 -59 -110 -176q0 -47 18.5 -84t56.5 -69q35 -29 71.5 -50.5 t74.5 -35t61 -20.5t42 -10l-74 -70q-6 0 -77.5 29t-151 80.5t-139.5 132.5t-60 183q0 119 143 217q-116 86 -116 176q0 51 32.5 80t69 39t51.5 10h262v100h-518zM279 549q0 -45 30 -57q67 22 164 22q138 0 227 -50.5t89 -149.5q0 -89 -68 -131t-135 -54q14 -43 57 -43 q83 0 161 51t126.5 106.5t73.5 92.5v522h-281v-256h-377q-20 0 -43.5 -9.5t-23.5 -43.5z" />
<glyph unicode="&#xe2;" horiz-adv-x="936" d="M0 858v172h944v-172h-204v-276h-402q-13 0 -31 -10t-18 -33q0 -32 16 -46t27 -16l15 3l49 5l83 3q63 0 124.5 -23t109.5 -61.5t77 -85.5t29 -92q0 -61 -29.5 -87.5t-89.5 -43.5q-20 -6 -39 -11q-28 -9 -49.5 -19.5t-21.5 -47.5q0 -50 57 -50q37 0 99.5 25.5t62.5 30.5 l23 2l61 -193q-78 0 -184.5 21t-189.5 76q-42 28 -64.5 66t-22.5 85q0 66 43 93q22 14 51.5 27.5t74.5 31.5q83 32 83 61q0 43 -69 43q-359 0 -359 -227q0 -87 83 -182t182 -162.5t128 -67.5l-67 -72q-8 0 -93.5 53.5t-183.5 136.5q-48 41 -88.5 85.5t-77.5 98.5 q-71 104 -71 206q0 104 49 155t117 85q-142 65 -142 176q0 74 56.5 97.5t107.5 23.5h271v116h-527z" />
<glyph unicode="&#xe3;" horiz-adv-x="1323" d="M0 858v172h1354v-172h-137v-1006l-230 138v72h-221v-85q0 -33 -43 -33q-38 0 -91.5 24.5t-106.5 72.5q-91 102 -91 152q0 28 35 28h94v109h-182q-44 0 -87.5 -35t-43.5 -115q0 -107 120 -184q58 -37 109.5 -64t90.5 -41l-60 -59q-10 0 -86 35.5t-153.5 90t-140 138 t-62.5 179.5q0 135 135 194q-121 71 -121 172q0 43 29 68.5t65 36.5q38 10 54 10h303v102h-533zM254 549q0 -33 14 -45t23 -12h154h159l154 -121v-152h229v639h-254v-254h-419q-14 0 -37 -13.5t-23 -41.5z" />
<glyph unicode="&#xe4;" horiz-adv-x="1506" d="M-17 697h695v163h-672v170h1508v-170h-604v-213q92 52 172 52q63 0 136 -60t121 -154t48 -188q0 -49 -24.5 -106t-55.5 -99q-16 -23 -32 -43.5t-30 -35.5l-38 -42l-213 146q21 0 83 52q31 25 60 56.5t54 68.5q50 73 50 138q0 35 -18 59.5t-51 24.5q-40 0 -102 -27 q-28 -12 -57 -29q-25 -14 -53 -33q-50 -33 -50 -42v-496l-232 138v493h-143q-19 0 -69 -32t-91 -91t-41 -135q0 -115 59 -186.5t111 -85.5l-115 -48q-8 0 -70.5 64t-113.5 155.5t-51 191.5t84 169l-158 -4z" />
<glyph unicode="&#xe5;" horiz-adv-x="940" d="M0 858v172h951v-172h-236v-295h-340q-22 0 -42.5 -5t-44.5 -18q-44 -23 -44 -101q0 -62 39.5 -104t92.5 -61q26 -10 49.5 -15t45.5 -5q38 0 62 15q-29 27 -29 71q0 50 42 81.5t101 31.5q32 0 56.5 -11.5t45.5 -35.5q40 -43 40 -103q0 -87 -119 -143l137 -218l-131 -49 l-111 247h-61l-205 -316q-5 -7 -11 -16t-13 -16t-19 -7q-16 0 -33 10q-34 15 -60 88.5t-26 139.5q0 48 15 74q21 24 45 24q9 0 24 -8l62 -31l70 121l-49 22q-46 20 -98 55t-91 94.5t-39 137.5q0 142 86 184t172 42h184v120h-518z" />
<glyph unicode="&#xe6;" horiz-adv-x="815" d="M0 860v170h951v-170h-236v-295h-340q-43 0 -87 -22.5t-44 -99.5q0 -61 38.5 -102t93.5 -62q57 -19 95 -19q36 0 62 15q-29 27 -29 69q0 50 42 81.5t101 31.5q32 0 56.5 -11.5t45.5 -35.5q40 -43 40 -103q0 -87 -119 -141l137 -217l-131 -50l-108 243l-404 -155l-104 155 l264 63q-91 35 -169.5 110.5t-78.5 200.5q0 141 86.5 182.5t171.5 41.5h184v120h-518z" />
<glyph unicode="&#xe7;" horiz-adv-x="981" d="M0 860v170h996v-170h-134v-971l-231 138v239l-426 -287l-141 165l346 194l-307 184v338h-103zM316 510l188 -119l127 88v381h-315v-350z" />
<glyph unicode="&#xe8;" horiz-adv-x="725" d="M82 875q0 85 66.5 136.5t187.5 51.5q101 0 172.5 -49.5t71.5 -142.5q0 -41 -28.5 -69t-61.5 -42t-45 -14l-66 86q25 0 51.5 13.5t26.5 37.5q0 45 -68 45q-63 0 -101 -30.5t-38 -94.5q0 -60 49 -104.5t78 -53.5q18 6 66 15q20 4 50 7t62 3l133 -145l-16 -11 q-108 0 -231 -43.5t-123 -138.5q0 -46 32.5 -65t73.5 -19q92 0 188 51q50 27 89.5 53t78.5 59q72 62 72 68h23v-237q-50 -39 -145.5 -86t-202.5 -47q-76 0 -167.5 45t-153.5 120.5t-62 161.5q0 105 133 168q-67 34 -131 104.5t-64 166.5zM602 1030h158v-170h-84z" />
<glyph unicode="&#xe9;" horiz-adv-x="723" d="M0 860v170h758l-2 -170h-756zM51 660q0 -43 35.5 -107t87 -109.5t97.5 -45.5q45 0 45 47v100h155q26 0 56.5 -12t50.5 -27l182 -86l-563 -154q-60 -15 -80 -33t-20 -46q0 -45 54 -91t131 -75t136 -29q22 0 37.5 3t29.5 11q27 15 27 37l-4 19l-41 84l367 120l2 263 q-16 13 -109 54l-142 64q-47 22 -91 54q-30 21 -82.5 33t-104.5 12h-172q-39 0 -61.5 -24t-22.5 -62z" />
<glyph unicode="&#xea;" horiz-adv-x="924" d="M0 858v172h942v-172h-235v-297h-375q-33 0 -67.5 -20t-34.5 -84q0 -42 39.5 -77.5t113.5 -35.5q110 0 198.5 21t142.5 48t65 44l69 -176q-10 0 -94 -29q-26 -13 -76 -26v-284h-356q-29 0 -69 -21t-40 -83q0 -38 32 -67q32 -27 83 -27q125 0 217.5 20t146.5 46t64 40 l68 -170l-55 -18q-44 -16 -119 -32q-66 -13 -172 -13q-84 0 -179.5 38.5t-161 111.5t-65.5 165q0 81 63 123t144 42h209v126q-65 0 -131 17.5t-142 52.5q-143 65 -143 240q0 77 66 127.5t141 50.5h229v147h-518z" />
<glyph unicode="&#xeb;" horiz-adv-x="910" d="M0 858v172h940v-172h-233v-295h-375q-109 0 -109 -94q0 -37 44.5 -63.5t99.5 -26.5q108 0 200.5 19.5t152 47.5t69.5 44l69 -154q-12 0 -51 -24.5t-57 -28.5l-60 -19v-139q49 -23 99.5 -82.5t50.5 -165.5q0 -81 -44.5 -140t-119.5 -89.5t-168 -30.5q-69 0 -137.5 19.5 t-128.5 58t-96.5 96t-36.5 129.5q0 74 39 124q41 48 90.5 69.5t77.5 21.5h198v127q-63 0 -164.5 25t-184.5 92t-83 184q0 67 64.5 110.5t142.5 43.5h229v141h-518zM234 -150q0 -48 37.5 -76t74.5 -28q78 0 172.5 23t162 63.5t67.5 81.5q0 61 -137 61h-265q-35 0 -73.5 -30 t-38.5 -95z" />
<glyph unicode="&#xec;" horiz-adv-x="936" d="M0 858v172h969v-172h-199v-262h-432q-61 0 -61 -53q0 -48 53 -57q140 32 201 32q80 0 149 -38.5t110.5 -95t41.5 -103.5q0 -85 -54.5 -130.5t-160.5 -45.5q-127 0 -262 45q-24 -12 -51 -36.5t-27 -55.5q0 -21 18 -51q20 -30 27 -34l90 18q69 11 119 11q80 0 149.5 -34.5 t110.5 -86t41 -96.5q0 -79 -79.5 -128.5t-189.5 -49.5q-96 0 -189.5 37.5t-170.5 89t-127.5 98.5t-50.5 55l59 49q35 -46 130 -114t239 -68q130 0 203 12t73 60q0 37 -75 37q-90 0 -173.5 -11t-95.5 -18q-12 0 -78 57q-27 24 -61 59.5t-59 65.5q-54 68 -54 113q0 63 68 111 q-25 12 -90 57q-36 24 -88 92l61 43q37 -41 134 -107.5t218 -66.5q137 0 215 12t78 58q0 61 -75 61q-48 0 -93 -6t-93 -20q-93 -25 -103 -37q-13 0 -75 55.5t-108 123.5q-49 72 -49 130q0 60 54 79t92 19h305v125h-584z" />
<glyph unicode="&#xed;" horiz-adv-x="910" d="M0 860v170h953v-170h-236v-204h-373q-102 0 -102 -50q0 -22 29 -42.5t36 -20.5l23 5q23 6 44 8.5t41 3.5t44 1h152l100 -147l-44 4l-81 2q-132 0 -229 -28.5t-97 -102.5q0 -56 90 -82q24 -6 54 -6q49 0 81 4t64 16q-10 23 -10 37q0 48 41.5 74.5t107.5 26.5q61 0 96 -32 t35 -81q0 -84 -122 -133l112 -171l-135 -49l-80 199l-69 -4q-89 0 -191 38t-168.5 100.5t-66.5 132.5q0 101 104 149q-49 21 -89 60t-40 102q0 59 42.5 88t113.5 29h284v73h-514z" />
<glyph unicode="&#xee;" horiz-adv-x="1080" d="M-228 537v172q14 5 49.5 12.5t63.5 13.5q50 10 103 15.5t125 5.5h51q399 0 399 -231q0 -92 -87.5 -136t-168.5 -53q35 -80 117 -80q70 0 139.5 40t122.5 89t54 56v419h-744v170h1114v-170h-133v-971l-237 138v141q-121 -71 -222 -71t-177.5 52t-125.5 124q-44 67 -73 134 q-25 62 -25 75l23 4q1 -1 5.5 -2.5t14.5 -1.5q61 0 146 30t85 80q0 49 -71 49q-97 0 -181.5 -10.5t-162.5 -31.5q-151 -39 -204 -62z" />
<glyph unicode="&#xef;" horiz-adv-x="951" d="M0 858v172h969v-172h-199v-268h-432q-61 0 -61 -51q0 -48 53 -57q140 32 201 32q79 0 147.5 -39.5t111 -99t42.5 -106.5q0 -83 -55 -130t-160 -47q-150 0 -258 43q-113 -134 -113 -211q0 -113 77 -155q40 -23 80.5 -34.5t86.5 -11.5q-88 51 -88 119q0 39 26.5 77.5 t73.5 63.5t102 25q57 0 122 -23t111 -65t46 -98q0 -89 -90.5 -152t-243.5 -63q-93 0 -202 53t-181 144.5t-72 199.5q0 106 107 224q-52 27 -90 57q-37 24 -88 92l61 43q20 -22 52.5 -48.5t81.5 -61.5q96 -66 218 -66q137 0 215 12t78 60q0 28 -21.5 48.5t-53.5 20.5 q-66 0 -130 -13t-108.5 -27.5t-50.5 -20.5q-15 0 -73.5 52.5t-108.5 125t-50 129.5q0 60 54 79t92 19h305v129h-584zM537 -195q0 -27 18.5 -48.5t30.5 -29.5q10 0 52 19t77 45.5t35 50.5q0 28 -16.5 43.5t-38.5 15.5q-57 0 -107.5 -26t-50.5 -70z" />
<glyph unicode="&#xf0;" />
<glyph unicode="&#xf1;" horiz-adv-x="836" d="M148 537q0 95 73 162q76 61 183 61q110 0 180 -70q38 -32 58 -71t20 -88q0 -96 -78 -164q-37 -34 -83 -52t-101 -18q-108 0 -180 69t-72 171zM250 512q0 -50 25 -82q30 -24 104 -24q68 0 117 43q51 35 51 102q0 64 -29 84q-17 21 -96 21q-57 0 -113 -50q-59 -44 -59 -94z " />
<glyph unicode="&#xf2;" horiz-adv-x="1284" d="M0 860v170h1303v-170h-135v-975l-232 140v198l-260 -174l-137 191l397 162v37q-139 94 -178 94q-49 0 -97 -6q-24 -3 -46 -6t-50 -9l-55 -10q-29 -92 -86 -139q-38 -31 -88 -52l-63 -26q16 -14 141 -143q106 -111 229 -202l-88 -55q-38 33 -88 79q-28 26 -75 71 q-105 99 -219 241q-56 70 -84.5 128t-28.5 102q0 33 24.5 56.5t59.5 23.5h143v274h-287zM477 860l31 -153q47 0 87 2q121 6 128 6q57 0 213 -152v297h-459z" />
<glyph unicode="&#xf3;" horiz-adv-x="1540" d="M0 860v170h1577v-170h-135v-971l-231 138v229l-410 -233l-121 203l481 180l-122 94q-14 10 -33.5 53t-33 62.5t-36.5 19.5q-53 -11 -169 -48l-122 -38l-100 217l166 22q104 13 180 13q41 0 57 -8.5t60 -46.5q38 -33 79 -80q36 -43 75 -99l49 -67v360h-744l14 -47 q6 -21 9 -32q9 -31 17 -65.5t10.5 -51t2.5 -39.5q0 -29 -3 -53.5t-5 -38.5q50 -37 99 -37q40 0 66.5 2t60.5 9q57 12 96.5 27t40.5 19h22l-2 -164q-6 -8 -66 -28q-27 -9 -62 -15t-68 -6q-81 0 -224 109q-24 -49 -57 -82q-13 -14 -32.5 -26.5t-50.5 -26.5l-58 -23l141 -145 q112 -113 199 -159l-82 -61q-12 10 -21 17q-26 21 -62 53q-83 74 -167.5 159.5t-155.5 185.5q-34 50 -51.5 90.5t-17.5 76.5q0 33 24.5 55.5t59.5 22.5h143v274h-287z" />
<glyph unicode="&#xf4;" horiz-adv-x="1342" d="M0 860v170h1366v-170h-583v-135q57 39 147 39q64 0 136 -44.5t120.5 -119t48.5 -149.5q0 -42 -24 -75t-61 -59t-73 -43l-45 -22l-184 94l4 19q4 0 22.5 6.5t47.5 19.5q62 26 113 69t51 95q0 26 -20 47t-50 21q-41 0 -95 -24q-48 -21 -93 -51t-45 -36v-229v-70 q62 31 147 31q65 0 137.5 -45t120 -117.5t47.5 -147.5q0 -77 -72.5 -139.5t-132.5 -93.5l-219 121q27 0 96.5 31.5t124 80t54.5 103.5q0 26 -20 46q-18 20 -50 20q-40 0 -93.5 -22.5t-96.5 -52.5q-20 -13 -36 -28q-2 -2 -7 -6v-381l-234 112v131q-99 -51 -180 -51 q-71 0 -142 39t-116 98.5t-45 115.5q0 85 73 133.5t162 68.5q45 9 73.5 14t45.5 5l117 -139l-19 -15q-82 0 -197.5 -36t-115.5 -102q0 -53 64 -53q45 0 109 27t117.5 60t53.5 39v223v94q-86 -51 -180 -51q-73 0 -141.5 38t-115 97.5t-46.5 112.5q0 85 75 135.5t160 69.5 q43 10 72.5 15t48.5 5l115 -141l-19 -11q-39 0 -114.5 -15t-137 -47.5t-61.5 -78.5q0 -53 64 -53q44 0 108 26.5t119 60.5q31 18 46 30q3 2 7 6v284h-549z" />
<glyph unicode="&#xf5;" horiz-adv-x="1356" d="M31 924q144 -24 225.5 -84t81.5 -188v-162q0 -29 45 -29h187v205q0 58 26.5 119t114.5 61h266q59 0 105 13q22 6 43.5 13.5t42.5 18.5l116 64q-12 -45 -24 -78.5t-29 -64.5q-30 -57 -89.5 -95.5t-156.5 -38.5h-178q-22 0 -22 -41v-172l213 -4q137 0 196 -90l4 -283 q0 -68 31 -130.5t94 -140.5q-139 25 -223 85t-84 184v168q0 10 -8 13l-41 2l-182 -3v-192q0 -54 -29 -116.5t-117 -62.5h-270q-41 0 -76 -6t-68 -20q-64 -28 -149 -86q25 128 88 202.5t201 74.5h178q27 0 27 43v163l-217 3h-39v20l-17 -5l-28 -3q-86 0 -111 88v33v243 q0 72 -30 133t-97 146z" />
<glyph unicode="&#xf6;" horiz-adv-x="951" d="M129 891l90 53q0 -17 24.5 -66t73.5 -87.5t126 -38.5q58 0 100 25t66.5 59t38.5 70l18 45l145 -127l-23 -40q-22 -37 -58 -72t-99.5 -64t-142.5 -29q-150 0 -238.5 101.5t-120.5 170.5zM295 500l90 12q30 4 52 6t45 2q115 0 176 -71q81 -100 136 -182l81 -121l-78 -41 l-172 229q-19 25 -90 25q-39 0 -78 -16l-61 -25zM305 946l125 113l115 -113l-115 -112z" />
<glyph unicode="&#xf7;" />
<glyph unicode="&#xf8;" horiz-adv-x="1194" d="M135 721q0 104 35 171t89.5 97.5t113.5 30.5q64 0 128 -48.5t64 -209.5q0 -163 -76 -236t-153 -73q-76 0 -138.5 58.5t-62.5 209.5zM246 797q0 -117 40.5 -170t100.5 -53q66 0 66 90q0 235 -146 235q-27 0 -44 -26.5t-17 -75.5zM277 2l651 1018h121l-653 -1018h-119z M766 269q0 103 35 170.5t91 99.5q28 15 55 23t57 8q68 0 129 -48.5t61 -209.5q0 -164 -77 -237t-154 -73q-73 0 -135 59t-62 208zM877 346q0 -221 143 -221q64 0 64 90q0 115 -39.5 175.5t-108.5 60.5q-59 0 -59 -105z" />
<glyph unicode="&#xf9;" horiz-adv-x="1297" d="M0 860v170h1329v-170h-135v-971l-241 121v105l-258 -18v-80q0 -48 -33 -48q-56 0 -137.5 39t-141 90.5t-59.5 86.5q0 12 8.5 22t24.5 10l114 13v123h-219q-9 7 -15 12q-15 13 -43 40q-55 55 -98 117.5t-43 112.5q0 54 44 90.5t108 36.5h285v98h-490zM193 563q0 -25 6 -48 q3 -11 5 -14.5t5 -6.5h301l180 -129v-113l263 25v583h-250v-254h-451q-21 0 -40 -9.5t-19 -33.5z" />
<glyph unicode="&#xfa;" horiz-adv-x="23" d="M-342 1168v452l182 -2v-450h-182z" />
<glyph unicode="&#xfb;" horiz-adv-x="1198" d="M404 -19v1051l211 -145v-1065zM774 -19v1051l215 -143v-1067z" />
<glyph unicode="&#xfc;" horiz-adv-x="4" d="M-713 1534h172q102 0 131 -39q94 -125 186.5 -287t92.5 -178h-78l-85 134q-53 81 -104 145q-29 37 -118 37l-121 -25zM-277 1417l119 117l131 -117l-129 -114z" />
<glyph unicode="&#xfd;" horiz-adv-x="1123" d="M291 -269l6 1482h623l-111 -158h-311l-4 -1164h422l-109 -160h-516z" />
<glyph unicode="&#xfe;" horiz-adv-x="1123" d="M334 -271l111 156h311l6 1166h-424l109 160h518l-6 -1482h-625z" />
<glyph unicode="&#x152;" horiz-adv-x="1133" d="M152 551q0 86 52 156t140 111q51 23 94 35t93 12q121 0 219 -66t151.5 -167t53.5 -198q0 -67 -31.5 -124t-84 -97.5t-123.5 -66.5q-33 -12 -71.5 -19.5t-72.5 -7.5q-122 0 -217.5 65.5t-149 168t-53.5 198.5zM295 414q0 -60 33 -93q17 -16 46 -24t75 -8q75 0 164.5 41 t151 108.5t61.5 135.5q0 65 -50 93t-106 28q-97 0 -184 -43.5t-139 -109.5t-52 -128z" />
<glyph unicode="&#x153;" />
<glyph unicode="&#x178;" horiz-adv-x="793" d="M148 -41v238l446 321l-446 314v243l667 -450v-199z" />
<glyph unicode="&#x2c6;" horiz-adv-x="1133" d="M199 842q0 98 62.5 131t115.5 33h412l61 -154h-395q-39 0 -64.5 -25t-25.5 -61q0 -79 76 -119h292l93 -157l-250 2q-56 0 -102 -25.5t-72.5 -72t-26.5 -99.5q0 -65 40 -99t95 -40q87 0 150 22q0 162 125 162q63 0 103 -39t40 -114q0 -52 -28.5 -90.5t-82.5 -61.5 l199 -265l-102 -55l-168 302q-35 -11 -68 -11q-91 0 -197.5 58.5t-178.5 152.5t-72 191q0 93 44 146t93 75q-60 35 -114 91t-54 122z" />
<glyph unicode="&#x2000;" horiz-adv-x="810" />
<glyph unicode="&#x2001;" horiz-adv-x="1620" />
<glyph unicode="&#x2002;" horiz-adv-x="810" />
<glyph unicode="&#x2003;" horiz-adv-x="1620" />
<glyph unicode="&#x2004;" horiz-adv-x="540" />
<glyph unicode="&#x2005;" horiz-adv-x="405" />
<glyph unicode="&#x2006;" horiz-adv-x="270" />
<glyph unicode="&#x2007;" horiz-adv-x="270" />
<glyph unicode="&#x2008;" horiz-adv-x="202" />
<glyph unicode="&#x2009;" horiz-adv-x="324" />
<glyph unicode="&#x200a;" horiz-adv-x="90" />
<glyph unicode="&#x2010;" horiz-adv-x="555" d="M230 92l153 138l148 -138l-148 -135z" />
<glyph unicode="&#x2011;" horiz-adv-x="555" d="M230 92l153 138l148 -138l-148 -135z" />
<glyph unicode="&#x2012;" horiz-adv-x="555" d="M230 92l153 138l148 -138l-148 -135z" />
<glyph unicode="&#x2013;" horiz-adv-x="1278" d="M230 92l521 138l503 -138l-503 -135z" />
<glyph unicode="&#x2014;" horiz-adv-x="2302" d="M230 92l1041 138l1007 -138l-1007 -135z" />
<glyph unicode="&#x201e;" horiz-adv-x="1133" d="M107 965q36 21 125.5 45t216.5 24q99 0 193.5 -78.5t155 -188t60.5 -183.5q0 -81 -52.5 -145.5t-118.5 -104t-115 -57.5l309 -363l-103 -58l-282 402q-29 -4 -47.5 -6t-34.5 -2q-101 0 -153 42.5t-52 127.5q0 54 35.5 95.5t87.5 41.5q120 0 156 -102q66 13 139.5 72 t73.5 178q0 38 -23 81t-57.5 69t-71.5 26q-55 0 -102 -8t-97 -24q-88 -28 -139 -56z" />
<glyph unicode="&#x2022;" />
<glyph unicode="&#x2026;" horiz-adv-x="1133" d="M183 1014l108 15q103 14 154 14q104 0 193.5 -37.5t139.5 -105.5t50 -154q0 -85 -38 -136t-79 -73q160 -162 160 -260q0 -85 -45.5 -140.5t-101 -83t-103.5 -38.5l248 -259l-109 -57l-213 301l-23 -1l-28 -1q-85 0 -166.5 41t-81.5 125q0 48 33 86.5t84 38.5 q54 0 90.5 -28.5t48.5 -55.5q25 0 80.5 14t100 46.5t44.5 84.5q0 49 -43.5 99.5t-64.5 60.5l-23 -7l-39 -7l-137 -23l-104 197q150 0 277.5 27.5t127.5 97.5q0 49 -27.5 76.5t-64.5 27.5q-72 0 -198.5 -24.5t-166.5 -38.5z" />
<glyph unicode="&#x202f;" horiz-adv-x="324" />
<glyph unicode="&#x2039;" horiz-adv-x="1133" d="M127 789q0 72 37.5 127.5t105 85.5t150.5 30t176 -49.5t157 -131.5t64 -175q0 -107 -91.5 -148.5t-209.5 -41.5h-26q-15 0 -27 2q53 -35 93 -62.5t98 -70.5q162 -132 219 -201t57 -150q0 -71 -49.5 -116t-120.5 -87l-158 170q189 32 189 101q0 67 -74 129 q-69 58 -244 179q-170 116 -258 209t-88 200zM297 703q0 -106 90 -156q26 0 94 30t122.5 87t54.5 137q-6 45 -37.5 68.5t-73.5 23.5q-74 0 -131 -31t-88 -76q-15 -23 -23 -43.5t-8 -39.5z" />
<glyph unicode="&#x205f;" horiz-adv-x="405" />
<glyph unicode="&#x25fc;" horiz-adv-x="1030" d="M0 0v1030h1030v-1030h-1030z" />
</font>
</defs>
</svg>
